<?xml version="1.0" encoding="UTF-8" standalone="no"?>
<!-- Created with Inkscape (http://www.inkscape.org/) -->

<svg
   xmlns:dc="http://purl.org/dc/elements/1.1/"
   xmlns:cc="http://creativecommons.org/ns#"
   xmlns:rdf="http://www.w3.org/1999/02/22-rdf-syntax-ns#"
   xmlns:svg="http://www.w3.org/2000/svg"
   xmlns="http://www.w3.org/2000/svg"
   xmlns:sodipodi="http://sodipodi.sourceforge.net/DTD/sodipodi-0.dtd"
   xmlns:inkscape="http://www.inkscape.org/namespaces/inkscape"
   width="128"
   height="128"
   viewBox="0 0 33.866666 33.866668"
   version="1.1"
   id="svg7195"
   inkscape:version="0.92.2 (5c3e80d, 2017-08-06)"
   sodipodi:docname="fire.svg">
  <defs
     id="defs7189" />
  <sodipodi:namedview
     id="base"
     pagecolor="#ffffff"
     bordercolor="#666666"
     borderopacity="1.0"
     inkscape:pageopacity="0.0"
     inkscape:pageshadow="2"
     inkscape:zoom="2.8"
     inkscape:cx="17.234307"
     inkscape:cy="62.495221"
     inkscape:document-units="mm"
     inkscape:current-layer="layer1"
     showgrid="false"
     units="px"
     inkscape:window-width="1373"
     inkscape:window-height="794"
     inkscape:window-x="270"
     inkscape:window-y="109"
     inkscape:window-maximized="0" />
  <metadata
     id="metadata7192">
    <rdf:RDF>
      <cc:Work
         rdf:about="">
        <dc:format>image/svg+xml</dc:format>
        <dc:type
           rdf:resource="http://purl.org/dc/dcmitype/StillImage" />
        <dc:title></dc:title>
      </cc:Work>
    </rdf:RDF>
  </metadata>
  <g
     inkscape:label="Layer 1"
     inkscape:groupmode="layer"
     id="layer1"
     transform="translate(0,-263.13332)">
    <path
       id="path4507-0"
       style="fill:none;stroke:#000000;stroke-width:0.19641624px;stroke-linecap:butt;stroke-linejoin:miter;stroke-opacity:1"
       d="m 7.6342305,278.77802 c -1.1855143,-1.28767 -4.5202489,7.78238 0.941239,13.41374 3.0684005,3.16384 16.5693945,2.96789 18.8846575,-0.71371 4.078826,-6.48594 0.65494,-14.33738 -0.594253,-13.80304 0,0 -2.415704,6.20111 -4.638846,5.36828 -1.390155,-0.52077 -2.626339,-6.82911 -4.247151,-6.35851 -1.416426,-0.0771 -2.09082,5.14581 -4.398836,6.42339 -2.342527,-0.38929 -4.2894051,-2.52993 -5.9468105,-4.33015 z m 0.019787,-5.02357 c -1.4770712,-1.87534 -8.22205867,10.50841 -1.4174106,18.70983 3.823022,4.60776 20.644357,4.32238 23.529019,-1.03944 5.081944,-9.446 -1.656388,-20.055 -3.212799,-19.27679 0,0 -0.537406,8.20547 -3.307292,6.99256 -1.732039,-0.75844 -3.272242,-9.9458 -5.291666,-9.26042 -1.813492,-0.0648 -4.246261,9.09298 -5.480655,9.35491 -2.918633,-0.56696 -2.7541817,-2.85884 -4.8191964,-5.48065 z" />
    <path
       style="fill:#ff0000;fill-opacity:1;stroke:#000000;stroke-width:0.35714287;stroke-opacity:1"
       d="M 56.377164,122.19848 C 41.580579,120.77135 30.542485,117.01841 25.107444,111.5668 18.120783,104.55885 13.486693,92.816689 12.927918,80.705529 12.366209,68.530757 16.143793,53.691663 22.000242,45.06766 c 1.736342,-2.556877 4.462748,-5.13431 5.431069,-5.13431 0.964268,0 3.39718,3.53861 6.981567,10.154515 3.961815,7.312544 6.449252,9.700363 11.404986,10.948231 1.609257,0.405215 1.710086,0.383433 2.724707,-0.588636 1.387746,-1.329544 3.837543,-6.181211 7.653354,-15.156967 6.001817,-14.117804 9.224446,-19.285714 12.026275,-19.285714 3.186671,0 5.040578,3.218785 11.005046,19.107143 5.222264,13.911246 6.789611,16.25 10.890161,16.25 1.419482,0 1.843818,-0.194454 3.247214,-1.488061 2.092854,-1.929124 3.761143,-5.415493 5.101146,-10.660295 1.065768,-4.171454 2.197113,-11.052378 2.197113,-13.363035 0,-1.667846 0.90557,-1.705322 2.74526,-0.113609 2.0062,1.735785 2.78885,2.661928 4.94453,5.851118 4.98452,7.374255 8.89728,18.57063 10.18861,29.154774 0.61519,5.042243 0.26406,14.802543 -0.70663,19.642493 -1.56439,7.800147 -5.23684,16.403813 -8.39886,19.676513 -7.59454,7.86037 -24.292848,12.47437 -44.566326,12.31437 -3.983264,-0.0314 -7.8048,-0.1114 -8.4923,-0.17771 z m 22.678571,-4.27354 c 10.4407,-1.28336 19.459775,-4.51769 23.296395,-8.35431 3.41881,-3.41881 7.14715,-12.015362 8.55954,-19.736008 0.81423,-4.4509 0.79894,-13.52195 -0.0304,-18.062529 -1.22306,-6.695839 -3.70665,-12.994067 -6.18157,-15.676085 -1.38907,-1.505306 -2.49145,-2.06266 -3.16645,-1.600934 -0.20882,0.142838 -1.52332,2.590062 -2.92111,5.438276 -4.862068,9.907218 -9.255335,15 -12.939685,15 -2.580411,0 -3.730775,-1.631218 -8.021336,-11.374246 -3.451529,-7.837739 -5.093582,-10.733922 -6.841886,-12.06742 -1.032664,-0.787652 -1.484382,-0.90689 -2.851771,-0.752765 -2.265029,0.255301 -3.108236,1.188606 -5.40284,5.980145 -5.727446,11.959918 -6.611725,13.598286 -8.389028,15.542936 -2.4789,2.712314 -2.793397,2.843904 -5.039147,2.10845 -5.151534,-1.687057 -8.771185,-4.276771 -15.498441,-11.088518 -3.02154,-3.059487 -5.347345,-5.134296 -5.755407,-5.134296 -1.986777,0 -4.557937,4.26025 -5.998509,9.939153 -3.77857,14.895565 -0.09586,31.093604 9.344492,41.100881 2.884694,3.05793 5.622451,4.67936 10.633333,6.29756 9.560547,3.08747 24.150415,4.04422 37.20385,2.43971 z"
       id="path4527"
       inkscape:connector-curvature="0"
       transform="matrix(0.26458333,0,0,0.26458333,0,263.13332)" />
  </g>
</svg>
