<?xml version='1.0' encoding='ascii'?>
<svg xmlns="http://www.w3.org/2000/svg" height="240" version="1.1" width="320">
    <g id="RenderLayer_LineSet" inkscape:groupmode="lineset" inkscape:label="RenderLayer_LineSet" xmlns:inkscape="http://www.inkscape.org/namespaces/inkscape">
        <g id="strokes" inkscape:groupmode="layer" inkscape:label="strokes" xmlns:inkscape="http://www.inkscape.org/namespaces/inkscape">
            <path d=" M 125.401, 103.023 125.401, 103.647 125.401, 104.418 125.401, 106.988 125.401, 107.121 125.401, 110.529 126.103, 111.716 126.277, 112.010 128.628, 115.983 128.901, 116.145 129.701, 116.618 130.809, 117.275 134.183, 119.275 135.981, 120.341 136.677, 120.341 138.009, 120.341 141.734, 120.341 142.849, 120.341 144.642, 120.341 154.642, 120.341 158.616, 120.341 168.616, 120.341 178.616, 120.341 181.250, 120.341 182.499, 119.601 185.779, 117.657 186.270, 117.366 186.412, 117.281 188.603, 115.983 189.744, 114.054 190.013, 113.601 191.109, 111.748 191.667, 110.805 191.830, 110.529 191.830, 107.713 191.830, 107.060 191.830, 107.060 191.830, 106.988 191.830, 106.794 191.830, 106.402 191.830, 104.418 191.830, 101.609 " fill="none" stroke="rgb(0, 0, 0)" stroke-linecap="butt" stroke-linejoin="round" stroke-opacity="1.0" stroke-width="3.0" />
            <path d=" M 188.912, 90.041 188.245, 87.768 188.245, 87.768 186.339, 81.281 184.894, 77.994 181.468, 70.799 181.051, 69.923 180.862, 69.526 179.736, 67.160 179.424, 66.505 176.870, 61.143 176.700, 60.785 176.377, 60.107 176.284, 59.912 175.624, 58.524 169.145, 58.524 169.144, 58.524 165.195, 58.524 165.195, 58.524 165.195, 58.524 164.160, 58.524 164.160, 58.524 158.616, 58.524 153.072, 58.524 153.072, 58.524 152.036, 58.524 152.036, 58.524 152.036, 58.524 148.084, 58.524 148.083, 58.524 141.608, 58.524 140.947, 59.912 140.854, 60.107 140.531, 60.785 140.361, 61.143 137.808, 66.505 137.495, 67.160 136.369, 69.526 136.180, 69.923 135.763, 70.799 132.337, 77.994 130.892, 81.281 129.192, 87.067 128.986, 87.768 128.986, 87.768 " fill="none" stroke="rgb(0, 0, 0)" stroke-linecap="butt" stroke-linejoin="round" stroke-opacity="1.0" stroke-width="3.0" />
            <path d=" M 141.608, 58.524 141.608, 59.912 141.608, 60.107 141.608, 60.563 141.608, 60.785 141.608, 61.143 141.608, 66.131 141.608, 66.505 141.608, 67.160 141.608, 69.526 141.608, 69.923 141.608, 70.799 141.608, 80.799 141.608, 87.396 142.296, 89.475 144.667, 96.640 144.927, 97.426 154.927, 97.426 158.616, 97.426 168.616, 97.426 172.304, 97.426 172.564, 96.640 174.935, 89.475 175.624, 87.396 175.624, 77.396 175.624, 70.799 175.624, 69.923 175.624, 69.526 175.624, 67.160 175.624, 66.505 175.624, 66.131 175.624, 61.143 175.624, 60.785 175.624, 60.563 175.624, 60.107 175.624, 59.912 175.624, 58.524 " fill="none" stroke="rgb(0, 0, 0)" stroke-linecap="butt" stroke-linejoin="round" stroke-opacity="1.0" stroke-width="3.0" />
            <path d=" M 126.335, 90.513 128.319, 90.041 128.835, 89.918 129.073, 91.682 129.080, 91.738 129.250, 93.243 129.522, 95.317 130.809, 95.863 132.638, 96.640 135.280, 97.761 136.538, 98.295 136.639, 98.338 " fill="none" stroke="rgb(0, 0, 0)" stroke-linecap="butt" stroke-linejoin="round" stroke-opacity="1.0" stroke-width="3.0" />
            <path d=" M 138.396, 102.842 138.804, 100.765 137.694, 100.330 136.810, 99.983 135.168, 99.338 134.140, 98.934 130.809, 97.520 128.735, 96.640 128.087, 96.365 127.068, 95.932 127.068, 95.932 127.023, 95.913 126.890, 94.905 126.750, 93.839 126.574, 92.277 126.501, 91.738 126.335, 90.513 " fill="none" stroke="rgb(0, 0, 0)" stroke-linecap="butt" stroke-linejoin="round" stroke-opacity="1.0" stroke-width="3.0" />
            <path d=" M 164.160, 46.172 158.616, 46.172 153.072, 46.172 153.072, 46.172 " fill="none" stroke="rgb(0, 0, 0)" stroke-linecap="butt" stroke-linejoin="round" stroke-opacity="1.0" stroke-width="3.0" />
            <path d=" M 118.634, 65.498 118.634, 65.498 118.634, 67.486 " fill="none" stroke="rgb(0, 0, 0)" stroke-linecap="butt" stroke-linejoin="round" stroke-opacity="1.0" stroke-width="3.0" />
            <path d=" M 148.085, 39.955 148.085, 41.878 148.085, 42.001 148.085, 42.754 148.085, 44.432 148.085, 45.517 148.085, 46.172 148.085, 48.910 148.085, 53.388 148.085, 57.865 138.085, 57.865 128.085, 57.865 123.855, 57.865 " fill="none" stroke="rgb(0, 0, 0)" stroke-linecap="butt" stroke-linejoin="round" stroke-opacity="1.0" stroke-width="3.0" />
            <path d=" M 119.905, 66.505 119.905, 66.505 119.905, 66.505 119.905, 65.931 119.905, 65.135 119.905, 60.785 " fill="none" stroke="rgb(0, 0, 0)" stroke-linecap="butt" stroke-linejoin="round" stroke-opacity="1.0" stroke-width="3.0" />
            <path d=" M 152.036, 42.754 152.036, 42.754 152.036, 41.878 152.036, 37.035 142.036, 37.035 132.036, 37.035 122.036, 37.035 119.905, 37.035 " fill="none" stroke="rgb(0, 0, 0)" stroke-linecap="butt" stroke-linejoin="round" stroke-opacity="1.0" stroke-width="3.0" />
            <path d=" M 119.905, 37.035 119.905, 41.878 119.905, 42.972 119.905, 48.118 119.905, 48.692 119.905, 48.910 119.905, 49.129 119.905, 52.951 119.905, 54.056 119.905, 54.848 " fill="none" stroke="rgb(0, 0, 0)" stroke-linecap="butt" stroke-linejoin="round" stroke-opacity="1.0" stroke-width="3.0" />
            <path d=" M 117.932, 83.974 119.208, 84.569 " fill="none" stroke="rgb(0, 0, 0)" stroke-linecap="butt" stroke-linejoin="round" stroke-opacity="1.0" stroke-width="3.0" />
            <path d=" M 128.628, 115.983 130.809, 114.715 134.113, 112.795 134.612, 112.505 134.974, 112.294 138.816, 110.061 140.303, 109.197 " fill="none" stroke="rgb(0, 0, 0)" stroke-linecap="butt" stroke-linejoin="round" stroke-opacity="1.0" stroke-width="3.0" />
            <path d=" M 140.896, 103.848 140.303, 109.197 144.908, 109.197 154.908, 109.197 158.616, 109.197 168.616, 109.197 176.928, 109.197 " fill="none" stroke="rgb(0, 0, 0)" stroke-linecap="butt" stroke-linejoin="round" stroke-opacity="1.0" stroke-width="3.0" />
            <path d=" M 125.161, 92.908 125.463, 94.528 125.603, 95.466 125.633, 95.668 125.688, 96.031 125.796, 96.640 126.033, 97.965 126.110, 97.998 126.421, 98.134 126.421, 98.134 126.548, 98.189 129.769, 99.585 130.809, 100.037 132.566, 100.798 134.994, 101.776 135.066, 101.804 " fill="none" stroke="rgb(0, 0, 0)" stroke-linecap="butt" stroke-linejoin="round" stroke-opacity="1.0" stroke-width="3.0" />
            <path d=" M 176.335, 103.848 166.413, 105.094 158.616, 106.073 148.693, 104.827 145.023, 104.366 140.896, 103.848 137.678, 102.720 137.227, 102.562 135.066, 101.804 " fill="none" stroke="rgb(0, 0, 0)" stroke-linecap="butt" stroke-linejoin="round" stroke-opacity="1.0" stroke-width="3.0" />
            <path d=" M 158.616, 87.559 158.616, 77.559 158.616, 69.923 158.616, 66.131 " fill="none" stroke="rgb(0, 0, 0)" stroke-linecap="butt" stroke-linejoin="round" stroke-opacity="1.0" stroke-width="3.0" />
            <path d=" M 184.894, 82.220 179.902, 73.556 178.313, 70.799 177.809, 69.923 177.580, 69.526 176.217, 67.160 175.839, 66.505 175.624, 66.131 168.665, 66.131 165.195, 66.131 165.195, 66.131 165.195, 66.131 165.194, 66.131 165.193, 66.131 164.160, 66.131 164.160, 66.131 158.616, 66.131 153.072, 66.131 153.072, 66.131 152.036, 66.131 152.036, 66.131 152.036, 66.131 152.035, 66.131 152.034, 66.131 148.566, 66.131 141.608, 66.131 141.392, 66.505 141.015, 67.160 139.651, 69.526 139.422, 69.923 138.918, 70.799 133.925, 79.464 132.337, 82.220 " fill="none" stroke="rgb(0, 0, 0)" stroke-linecap="butt" stroke-linejoin="round" stroke-opacity="1.0" stroke-width="3.0" />
            <path d=" M 158.616, 66.131 158.616, 60.563 " fill="none" stroke="rgb(0, 0, 0)" stroke-linecap="butt" stroke-linejoin="round" stroke-opacity="1.0" stroke-width="3.0" />
            <path d=" M 123.855, 53.388 123.855, 51.342 123.855, 48.910 123.855, 44.432 123.855, 42.754 123.855, 41.878 123.855, 39.955 133.855, 39.955 143.855, 39.955 148.085, 39.955 " fill="none" stroke="rgb(0, 0, 0)" stroke-linecap="butt" stroke-linejoin="round" stroke-opacity="1.0" stroke-width="3.0" />
            <path d=" M 144.927, 97.426 143.868, 98.228 141.303, 100.170 " fill="none" stroke="rgb(0, 0, 0)" stroke-linecap="butt" stroke-linejoin="round" stroke-opacity="1.0" stroke-width="3.0" />
            <path d=" M 132.566, 100.798 133.505, 101.128 135.003, 101.653 137.204, 102.424 137.679, 102.591 138.396, 102.842 145.042, 103.573 154.982, 104.667 158.616, 105.067 168.556, 103.973 178.495, 102.879 178.835, 102.842 " fill="none" stroke="rgb(0, 0, 0)" stroke-linecap="butt" stroke-linejoin="round" stroke-opacity="1.0" stroke-width="3.0" />
            <path d=" M 153.072, 46.172 153.072, 45.517 153.072, 41.878 152.036, 41.878 " fill="none" stroke="rgb(0, 0, 0)" stroke-linecap="butt" stroke-linejoin="round" stroke-opacity="1.0" stroke-width="3.0" />
            <path d=" M 152.036, 58.524 152.036, 54.629 152.036, 48.692 152.036, 42.754 " fill="none" stroke="rgb(0, 0, 0)" stroke-linecap="butt" stroke-linejoin="round" stroke-opacity="1.0" stroke-width="3.0" />
            <path d=" M 153.072, 41.878 153.072, 46.172 153.072, 48.199 153.072, 54.519 153.072, 58.524 " fill="none" stroke="rgb(0, 0, 0)" stroke-linecap="butt" stroke-linejoin="round" stroke-opacity="1.0" stroke-width="3.0" />
            <path d=" M 118.869, 70.799 118.912, 70.799 119.681, 70.799 119.838, 70.799 119.905, 70.799 " fill="none" stroke="rgb(0, 0, 0)" stroke-linecap="butt" stroke-linejoin="round" stroke-opacity="1.0" stroke-width="3.0" />
            <path d=" M 119.905, 41.878 118.869, 41.878 118.869, 48.199 118.869, 49.385 118.869, 53.498 118.869, 54.519 118.869, 55.323 118.869, 59.436 118.869, 59.755 118.869, 60.107 118.869, 60.471 118.869, 60.840 " fill="none" stroke="rgb(0, 0, 0)" stroke-linecap="butt" stroke-linejoin="round" stroke-opacity="1.0" stroke-width="3.0" />
            <path d=" M 118.869, 70.799 118.869, 69.805 118.869, 69.433 118.869, 67.198 118.869, 67.160 " fill="none" stroke="rgb(0, 0, 0)" stroke-linecap="butt" stroke-linejoin="round" stroke-opacity="1.0" stroke-width="3.0" />
            <path d=" M 118.869, 60.840 118.869, 61.261 118.869, 63.867 118.869, 67.160 118.900, 67.160 119.870, 67.160 119.903, 67.160 119.904, 67.160 " fill="none" stroke="rgb(0, 0, 0)" stroke-linecap="butt" stroke-linejoin="round" stroke-opacity="1.0" stroke-width="3.0" />
            <path d=" M 152.036, 37.035 152.036, 41.878 152.036, 42.754 152.036, 42.972 152.036, 48.910 152.036, 54.848 152.036, 58.524 " fill="none" stroke="rgb(0, 0, 0)" stroke-linecap="butt" stroke-linejoin="round" stroke-opacity="1.0" stroke-width="3.0" />
            <path d=" M 118.869, 49.385 118.634, 49.673 118.634, 53.623 118.634, 55.611 " fill="none" stroke="rgb(0, 0, 0)" stroke-linecap="butt" stroke-linejoin="round" stroke-opacity="1.0" stroke-width="3.0" />
            <path d=" M 118.869, 55.323 118.634, 55.611 118.634, 55.612 118.634, 55.613 118.634, 59.560 118.634, 60.107 118.634, 60.319 118.634, 61.549 " fill="none" stroke="rgb(0, 0, 0)" stroke-linecap="butt" stroke-linejoin="round" stroke-opacity="1.0" stroke-width="3.0" />
            <path d=" M 119.905, 54.848 119.905, 59.994 119.905, 60.107 119.905, 60.785 119.905, 60.785 " fill="none" stroke="rgb(0, 0, 0)" stroke-linecap="butt" stroke-linejoin="round" stroke-opacity="1.0" stroke-width="3.0" />
            <path d=" M 123.855, 53.388 123.855, 57.865 " fill="none" stroke="rgb(0, 0, 0)" stroke-linecap="butt" stroke-linejoin="round" stroke-opacity="1.0" stroke-width="3.0" />
            <path d=" M 118.634, 67.486 118.634, 69.526 118.634, 69.968 118.634, 70.214 118.634, 71.436 118.634, 75.215 118.634, 79.419 118.634, 81.393 119.905, 82.948 " fill="none" stroke="rgb(0, 0, 0)" stroke-linecap="butt" stroke-linejoin="round" stroke-opacity="1.0" stroke-width="3.0" />
            <path d=" M 118.634, 69.968 118.577, 70.095 117.932, 71.560 117.932, 75.698 117.932, 79.836 " fill="none" stroke="rgb(0, 0, 0)" stroke-linecap="butt" stroke-linejoin="round" stroke-opacity="1.0" stroke-width="3.0" />
            <path d=" M 190.896, 90.513 190.731, 91.738 190.658, 92.277 190.481, 93.839 190.446, 94.104 190.341, 94.905 190.209, 95.913 " fill="none" stroke="rgb(0, 0, 0)" stroke-linecap="butt" stroke-linejoin="round" stroke-opacity="1.0" stroke-width="3.0" />
            <path d=" M 180.592, 98.338 184.257, 96.782 184.593, 96.640 186.412, 95.868 187.709, 95.317 187.981, 93.243 188.151, 91.738 188.158, 91.682 188.397, 89.918 188.912, 90.041 189.744, 90.239 " fill="none" stroke="rgb(0, 0, 0)" stroke-linecap="butt" stroke-linejoin="round" stroke-opacity="1.0" stroke-width="3.0" />
            <path d=" M 197.327, 42.754 197.327, 42.754 197.327, 41.878 197.327, 37.035 187.327, 37.035 177.327, 37.035 167.327, 37.035 165.195, 37.035 165.195, 41.878 165.195, 42.972 165.195, 45.517 165.195, 46.172 165.195, 48.910 165.195, 54.848 165.195, 58.524 " fill="none" stroke="rgb(0, 0, 0)" stroke-linecap="butt" stroke-linejoin="round" stroke-opacity="1.0" stroke-width="3.0" />
            <path d=" M 197.327, 60.785 187.327, 60.785 177.327, 60.785 176.700, 60.785 " fill="none" stroke="rgb(0, 0, 0)" stroke-linecap="butt" stroke-linejoin="round" stroke-opacity="1.0" stroke-width="3.0" />
            <path d=" M 197.327, 42.972 197.327, 45.517 197.327, 46.172 197.327, 48.692 197.327, 48.910 197.327, 54.848 197.327, 60.107 197.327, 60.785 197.327, 61.143 197.327, 66.505 187.327, 66.505 179.424, 66.505 " fill="none" stroke="rgb(0, 0, 0)" stroke-linecap="butt" stroke-linejoin="round" stroke-opacity="1.0" stroke-width="3.0" />
            <path d=" M 197.327, 42.972 197.327, 42.754 197.327, 41.878 197.327, 37.035 " fill="none" stroke="rgb(0, 0, 0)" stroke-linecap="butt" stroke-linejoin="round" stroke-opacity="1.0" stroke-width="3.0" />
            <path d=" M 197.327, 42.754 197.327, 48.692 " fill="none" stroke="rgb(0, 0, 0)" stroke-linecap="butt" stroke-linejoin="round" stroke-opacity="1.0" stroke-width="3.0" />
            <path d=" M 182.166, 101.804 182.075, 101.836 176.335, 103.848 176.928, 109.197 182.326, 112.334 186.412, 114.710 186.937, 115.014 188.603, 115.983 " fill="none" stroke="rgb(0, 0, 0)" stroke-linecap="butt" stroke-linejoin="round" stroke-opacity="1.0" stroke-width="3.0" />
            <path d=" M 182.166, 101.804 184.665, 100.798 186.412, 100.041 188.149, 99.287 189.443, 98.726 189.602, 98.657 189.744, 98.596 190.013, 98.479 190.470, 98.281 190.563, 98.240 190.577, 98.235 190.675, 98.192 190.810, 98.134 190.810, 98.134 191.122, 97.998 191.199, 97.965 191.435, 96.640 191.543, 96.031 191.598, 95.668 191.628, 95.467 191.768, 94.528 191.828, 94.209 191.877, 93.947 191.988, 93.346 " fill="none" stroke="rgb(0, 0, 0)" stroke-linecap="butt" stroke-linejoin="round" stroke-opacity="1.0" stroke-width="3.0" />
            <path d=" M 193.376, 42.001 183.376, 42.001 173.376, 42.001 169.146, 42.001 " fill="none" stroke="rgb(0, 0, 0)" stroke-linecap="butt" stroke-linejoin="round" stroke-opacity="1.0" stroke-width="3.0" />
            <path d=" M 169.146, 57.865 169.146, 55.434 169.146, 50.956 169.146, 46.479 169.146, 42.754 169.146, 42.001 169.146, 41.878 169.146, 39.955 " fill="none" stroke="rgb(0, 0, 0)" stroke-linecap="butt" stroke-linejoin="round" stroke-opacity="1.0" stroke-width="3.0" />
            <path d=" M 169.146, 57.865 169.146, 53.388 169.146, 48.910 169.146, 44.432 169.146, 42.754 169.146, 41.878 169.146, 39.955 179.146, 39.955 189.146, 39.955 193.376, 39.955 193.376, 41.878 193.376, 42.754 193.376, 44.432 193.376, 48.910 193.376, 51.342 193.376, 53.388 193.376, 55.434 193.376, 57.865 " fill="none" stroke="rgb(0, 0, 0)" stroke-linecap="butt" stroke-linejoin="round" stroke-opacity="1.0" stroke-width="3.0" />
            <path d=" M 175.928, 100.170 172.304, 97.426 " fill="none" stroke="rgb(0, 0, 0)" stroke-linecap="butt" stroke-linejoin="round" stroke-opacity="1.0" stroke-width="3.0" />
            <path d=" M 183.092, 98.934 182.723, 99.078 178.427, 100.765 178.835, 102.842 182.072, 101.707 183.726, 101.128 184.665, 100.798 " fill="none" stroke="rgb(0, 0, 0)" stroke-linecap="butt" stroke-linejoin="round" stroke-opacity="1.0" stroke-width="3.0" />
            <path d=" M 197.327, 70.799 197.327, 70.799 197.327, 70.799 197.327, 70.799 197.327, 70.799 197.393, 70.799 197.550, 70.799 198.320, 70.799 198.362, 70.799 198.362, 70.709 198.362, 69.805 198.362, 69.526 198.362, 69.433 198.362, 67.198 198.362, 65.692 198.362, 65.646 198.362, 65.374 198.362, 64.478 198.362, 63.867 198.362, 61.261 198.362, 60.471 198.362, 60.107 198.362, 59.755 198.362, 59.436 198.362, 58.158 198.362, 55.323 198.362, 53.498 198.362, 51.838 198.362, 49.385 198.362, 45.517 198.362, 41.878 197.327, 41.878 " fill="none" stroke="rgb(0, 0, 0)" stroke-linecap="butt" stroke-linejoin="round" stroke-opacity="1.0" stroke-width="3.0" />
            <path d=" M 165.195, 41.878 164.160, 41.878 164.160, 46.172 164.160, 48.199 164.160, 54.519 164.160, 58.524 " fill="none" stroke="rgb(0, 0, 0)" stroke-linecap="butt" stroke-linejoin="round" stroke-opacity="1.0" stroke-width="3.0" />
            <path d=" M 198.362, 67.160 198.362, 63.868 198.362, 61.261 198.362, 60.840 198.362, 60.107 198.362, 55.323 198.362, 54.519 198.362, 49.385 198.362, 48.199 198.362, 41.878 " fill="none" stroke="rgb(0, 0, 0)" stroke-linecap="butt" stroke-linejoin="round" stroke-opacity="1.0" stroke-width="3.0" />
            <path d=" M 197.327, 67.160 197.328, 67.160 197.329, 67.160 197.330, 67.160 197.362, 67.160 198.331, 67.160 198.362, 67.160 198.362, 67.198 198.362, 69.433 198.362, 69.805 198.362, 70.799 " fill="none" stroke="rgb(0, 0, 0)" stroke-linecap="butt" stroke-linejoin="round" stroke-opacity="1.0" stroke-width="3.0" />
            <path d=" M 197.327, 60.567 197.327, 60.107 197.327, 54.629 197.327, 48.692 " fill="none" stroke="rgb(0, 0, 0)" stroke-linecap="butt" stroke-linejoin="round" stroke-opacity="1.0" stroke-width="3.0" />
            <path d=" M 199.299, 84.569 199.299, 83.974 199.299, 79.836 " fill="none" stroke="rgb(0, 0, 0)" stroke-linecap="butt" stroke-linejoin="round" stroke-opacity="1.0" stroke-width="3.0" />
            <path d=" M 198.598, 63.580 198.598, 63.580 198.598, 60.319 198.598, 60.107 198.598, 59.630 198.598, 49.673 198.362, 49.385 " fill="none" stroke="rgb(0, 0, 0)" stroke-linecap="butt" stroke-linejoin="round" stroke-opacity="1.0" stroke-width="3.0" />
            <path d=" M 198.598, 63.580 198.598, 60.107 198.598, 53.623 198.362, 53.498 " fill="none" stroke="rgb(0, 0, 0)" stroke-linecap="butt" stroke-linejoin="round" stroke-opacity="1.0" stroke-width="3.0" />
            <path d=" M 198.598, 69.517 198.598, 69.517 198.598, 65.568 198.598, 65.321 198.598, 63.580 198.598, 60.319 198.598, 60.107 198.598, 59.630 198.598, 55.611 198.362, 55.323 " fill="none" stroke="rgb(0, 0, 0)" stroke-linecap="butt" stroke-linejoin="round" stroke-opacity="1.0" stroke-width="3.0" />
            <path d=" M 198.598, 69.517 198.598, 63.580 198.598, 60.107 198.598, 59.560 198.362, 59.436 " fill="none" stroke="rgb(0, 0, 0)" stroke-linecap="butt" stroke-linejoin="round" stroke-opacity="1.0" stroke-width="3.0" />
            <path d=" M 198.924, 70.710 198.924, 69.526 198.924, 60.107 198.598, 60.107 " fill="none" stroke="rgb(0, 0, 0)" stroke-linecap="butt" stroke-linejoin="round" stroke-opacity="1.0" stroke-width="3.0" />
            <path d=" M 198.924, 60.107 198.598, 60.319 " fill="none" stroke="rgb(0, 0, 0)" stroke-linecap="butt" stroke-linejoin="round" stroke-opacity="1.0" stroke-width="3.0" />
            <path d=" M 193.376, 51.342 193.376, 50.956 193.376, 46.479 " fill="none" stroke="rgb(0, 0, 0)" stroke-linecap="butt" stroke-linejoin="round" stroke-opacity="1.0" stroke-width="3.0" />
            <path d=" M 197.327, 82.948 197.327, 82.948 198.598, 81.393 198.598, 79.419 198.598, 77.443 198.598, 75.215 198.598, 70.214 198.598, 69.968 198.598, 69.526 198.598, 69.517 198.598, 67.486 198.362, 67.198 " fill="none" stroke="rgb(0, 0, 0)" stroke-linecap="butt" stroke-linejoin="round" stroke-opacity="1.0" stroke-width="3.0" />
            <path d=" M 198.598, 81.393 198.598, 75.455 198.598, 75.215 198.598, 71.436 197.503, 70.857 197.393, 70.799 " fill="none" stroke="rgb(0, 0, 0)" stroke-linecap="butt" stroke-linejoin="round" stroke-opacity="1.0" stroke-width="3.0" />
            <path d=" M 198.598, 61.549 198.362, 61.261 " fill="none" stroke="rgb(0, 0, 0)" stroke-linecap="butt" stroke-linejoin="round" stroke-opacity="1.0" stroke-width="3.0" />
            <path d=" M 198.598, 65.498 198.362, 65.374 " fill="none" stroke="rgb(0, 0, 0)" stroke-linecap="butt" stroke-linejoin="round" stroke-opacity="1.0" stroke-width="3.0" />
            <path d=" M 199.299, 84.569 199.299, 83.884 199.299, 79.746 199.299, 71.560 198.924, 70.710 198.654, 70.095 198.598, 69.968 " fill="none" stroke="rgb(0, 0, 0)" stroke-linecap="butt" stroke-linejoin="round" stroke-opacity="1.0" stroke-width="3.0" />
            <path d=" M 198.924, 64.868 198.598, 65.321 " fill="none" stroke="rgb(0, 0, 0)" stroke-linecap="butt" stroke-linejoin="round" stroke-opacity="1.0" stroke-width="3.0" />
            <path d=" M 182.993, 140.330 182.022, 140.340 179.703, 140.375 177.385, 140.414 176.042, 142.206 175.402, 145.647 175.626, 150.236 176.875, 155.470 179.307, 160.847 182.389, 166.014 185.584, 170.618 188.359, 174.304 190.178, 176.720 191.414, 178.363 192.160, 179.354 " fill="none" stroke="rgb(0, 0, 0)" stroke-linecap="butt" stroke-linejoin="round" stroke-opacity="1.0" stroke-width="3.0" />
            <path d=" M 187.166, 168.151 187.104, 168.111 185.425, 167.017 185.074, 166.788 185.336, 166.899 " fill="none" stroke="rgb(0, 0, 0)" stroke-linecap="butt" stroke-linejoin="round" stroke-opacity="1.0" stroke-width="3.0" />
            <path d=" M 187.827, 166.114 187.812, 166.154 187.812, 166.156 187.344, 167.448 187.104, 168.111 187.045, 168.274 187.166, 168.151 187.344, 167.448 187.740, 165.879 187.812, 166.156 187.814, 166.163 188.488, 171.086 185.425, 167.017 185.336, 166.899 182.404, 162.752 179.913, 158.687 178.082, 154.745 177.132, 150.966 176.952, 147.705 177.428, 145.318 178.451, 144.159 179.906, 144.583 180.639, 145.338 181.598, 146.327 183.327, 149.128 184.896, 152.723 186.108, 156.849 187.050, 161.373 187.675, 165.293 187.693, 165.407 187.812, 166.154 187.814, 166.163 " fill="none" stroke="rgb(0, 0, 0)" stroke-linecap="butt" stroke-linejoin="round" stroke-opacity="1.0" stroke-width="3.0" />
            <path d=" M 177.385, 140.414 179.272, 140.776 181.422, 142.559 182.833, 144.196 183.092, 144.497 183.554, 145.033 184.815, 146.709 184.912, 146.838 185.387, 147.469 185.622, 147.781 185.626, 147.786 185.721, 147.913 186.641, 149.134 186.846, 149.407 187.689, 150.527 188.905, 152.143 190.664, 154.480 191.510, 155.604 192.292, 156.642 193.339, 158.034 196.415, 162.478 199.377, 167.486 200.939, 170.997 201.525, 172.314 " fill="none" stroke="rgb(0, 0, 0)" stroke-linecap="butt" stroke-linejoin="round" stroke-opacity="1.0" stroke-width="3.0" />
            <path d=" M 187.318, 161.603 187.683, 165.305 187.693, 165.407 187.740, 165.879 " fill="none" stroke="rgb(0, 0, 0)" stroke-linecap="butt" stroke-linejoin="round" stroke-opacity="1.0" stroke-width="3.0" />
            <path d=" M 191.136, 162.176 191.190, 162.520 191.317, 163.319 191.958, 167.369 192.930, 172.214 194.127, 176.537 194.371, 177.130 " fill="none" stroke="rgb(0, 0, 0)" stroke-linecap="butt" stroke-linejoin="round" stroke-opacity="1.0" stroke-width="3.0" />
            <path d=" M 200.239, 172.314 199.601, 170.881 198.799, 169.077 198.706, 168.921 196.722, 165.619 196.360, 165.016 194.479, 162.338 193.688, 161.212 193.483, 160.921 193.439, 160.862 193.356, 160.752 190.388, 156.809 191.136, 162.176 " fill="none" stroke="rgb(0, 0, 0)" stroke-linecap="butt" stroke-linejoin="round" stroke-opacity="1.0" stroke-width="3.0" />
            <path d=" M 196.837, 174.223 196.202, 171.928 195.230, 167.083 194.669, 163.543 194.479, 162.338 " fill="none" stroke="rgb(0, 0, 0)" stroke-linecap="butt" stroke-linejoin="round" stroke-opacity="1.0" stroke-width="3.0" />
            <path d=" M 191.190, 162.521 191.190, 162.520 191.207, 162.465 191.399, 161.834 191.909, 160.163 191.911, 160.164 193.395, 160.842 193.439, 160.862 193.899, 161.072 " fill="none" stroke="rgb(0, 0, 0)" stroke-linecap="butt" stroke-linejoin="round" stroke-opacity="1.0" stroke-width="3.0" />
            <path d=" M 191.714, 167.182 191.317, 163.319 191.244, 162.614 191.399, 161.834 191.751, 160.069 191.911, 160.164 193.511, 161.108 193.688, 161.212 193.772, 161.262 " fill="none" stroke="rgb(0, 0, 0)" stroke-linecap="butt" stroke-linejoin="round" stroke-opacity="1.0" stroke-width="3.0" />
            <path d=" M 191.136, 162.176 191.207, 162.465 191.244, 162.614 191.190, 162.521 " fill="none" stroke="rgb(0, 0, 0)" stroke-linecap="butt" stroke-linejoin="round" stroke-opacity="1.0" stroke-width="3.0" />
            <path d=" M 191.751, 160.069 191.909, 160.163 " fill="none" stroke="rgb(0, 0, 0)" stroke-linecap="butt" stroke-linejoin="round" stroke-opacity="1.0" stroke-width="3.0" />
            <path d=" M 193.772, 161.262 193.483, 160.921 " fill="none" stroke="rgb(0, 0, 0)" stroke-linecap="butt" stroke-linejoin="round" stroke-opacity="1.0" stroke-width="3.0" />
            <path d=" M 180.639, 145.338 180.224, 147.419 180.404, 150.680 181.354, 154.458 183.184, 158.401 185.676, 162.466 187.675, 165.293 " fill="none" stroke="rgb(0, 0, 0)" stroke-linecap="butt" stroke-linejoin="round" stroke-opacity="1.0" stroke-width="3.0" />
            <path d=" M 214.250, 172.314 212.922, 167.486 210.842, 162.478 208.569, 158.034 206.544, 154.480 205.213, 152.143 204.293, 150.527 203.500, 149.134 202.551, 147.469 201.164, 145.033 199.497, 142.559 197.709, 140.776 197.065, 140.643 " fill="none" stroke="rgb(0, 0, 0)" stroke-linecap="butt" stroke-linejoin="round" stroke-opacity="1.0" stroke-width="3.0" />
            <path d=" M 204.268, 189.308 201.511, 189.308 " fill="none" stroke="rgb(0, 0, 0)" stroke-linecap="butt" stroke-linejoin="round" stroke-opacity="1.0" stroke-width="3.0" />
            <path d=" M 220.237, 189.308 220.237, 189.308 222.371, 189.308 225.064, 189.308 225.064, 179.950 224.858, 179.624 223.542, 177.542 220.237, 172.314 214.250, 172.314 213.019, 172.314 212.252, 172.314 209.807, 172.314 206.052, 172.314 204.268, 172.314 203.638, 172.314 202.794, 172.314 201.525, 172.314 200.239, 172.314 200.218, 172.314 198.456, 172.314 196.837, 174.223 194.371, 177.130 193.307, 178.386 192.160, 179.354 188.064, 182.814 188.064, 189.308 193.307, 189.308 194.280, 189.308 202.264, 189.308 210.249, 189.308 220.249, 189.308 225.014, 189.308 " fill="none" stroke="rgb(0, 0, 0)" stroke-linecap="butt" stroke-linejoin="round" stroke-opacity="1.0" stroke-width="3.0" />
            <path d=" M 209.095, 189.308 212.252, 189.308 217.079, 189.308 220.237, 189.308 225.064, 189.308 " fill="none" stroke="rgb(0, 0, 0)" stroke-linecap="butt" stroke-linejoin="round" stroke-opacity="1.0" stroke-width="3.0" />
            <path d=" M 225.064, 179.950 220.237, 179.950 217.079, 179.950 214.502, 179.950 212.252, 179.950 209.095, 179.950 " fill="none" stroke="rgb(0, 0, 0)" stroke-linecap="butt" stroke-linejoin="round" stroke-opacity="1.0" stroke-width="3.0" />
            <path d=" M 201.511, 178.386 193.307, 178.386 200.842, 174.212 202.882, 173.082 203.763, 172.594 204.268, 172.314 206.446, 175.759 209.095, 179.950 209.095, 183.511 209.095, 184.418 209.095, 187.772 209.095, 189.308 204.268, 189.308 204.268, 187.769 204.268, 183.136 204.268, 180.208 204.268, 174.595 204.268, 172.314 " fill="none" stroke="rgb(0, 0, 0)" stroke-linecap="butt" stroke-linejoin="round" stroke-opacity="1.0" stroke-width="3.0" />
            <path d=" M 196.268, 182.814 201.511, 178.386 201.511, 181.274 201.511, 184.479 201.511, 187.785 201.511, 189.308 196.268, 189.308 " fill="none" stroke="rgb(0, 0, 0)" stroke-linecap="butt" stroke-linejoin="round" stroke-opacity="1.0" stroke-width="3.0" />
            <path d=" M 188.064, 189.308 196.268, 189.308 196.268, 184.652 196.268, 182.814 194.765, 182.814 188.064, 182.814 " fill="none" stroke="rgb(0, 0, 0)" stroke-linecap="butt" stroke-linejoin="round" stroke-opacity="1.0" stroke-width="3.0" />
            <path d=" M 212.252, 172.314 212.252, 172.314 " fill="none" stroke="rgb(0, 0, 0)" stroke-linecap="butt" stroke-linejoin="round" stroke-opacity="1.0" stroke-width="3.0" />
            <path d=" M 222.371, 189.308 220.237, 189.308 " fill="none" stroke="rgb(0, 0, 0)" stroke-linecap="butt" stroke-linejoin="round" stroke-opacity="1.0" stroke-width="3.0" />
            <path d=" M 222.371, 189.308 231.267, 189.308 233.910, 189.308 233.910, 182.814 225.014, 178.386 223.542, 177.542 " fill="none" stroke="rgb(0, 0, 0)" stroke-linecap="butt" stroke-linejoin="round" stroke-opacity="1.0" stroke-width="3.0" />
            <path d=" M 222.371, 189.308 222.371, 189.308 " fill="none" stroke="rgb(0, 0, 0)" stroke-linecap="butt" stroke-linejoin="round" stroke-opacity="1.0" stroke-width="3.0" />
            <path d=" M 231.267, 182.814 231.267, 189.308 " fill="none" stroke="rgb(0, 0, 0)" stroke-linecap="butt" stroke-linejoin="round" stroke-opacity="1.0" stroke-width="3.0" />
            <path d=" M 233.910, 182.814 231.267, 182.814 224.858, 179.624 " fill="none" stroke="rgb(0, 0, 0)" stroke-linecap="butt" stroke-linejoin="round" stroke-opacity="1.0" stroke-width="3.0" />
            <path d=" M 191.101, 125.084 191.631, 125.680 192.883, 127.087 196.990, 128.247 197.349, 128.348 197.985, 128.528 198.671, 128.288 201.107, 127.436 202.106, 127.087 202.794, 125.084 " fill="none" stroke="rgb(0, 0, 0)" stroke-linecap="butt" stroke-linejoin="round" stroke-opacity="1.0" stroke-width="3.0" />
            <path d=" M 191.631, 125.680 188.382, 135.138 186.784, 139.791 186.676, 140.306 186.502, 141.142 " fill="none" stroke="rgb(0, 0, 0)" stroke-linecap="butt" stroke-linejoin="round" stroke-opacity="1.0" stroke-width="3.0" />
            <path d=" M 130.140, 140.719 129.865, 140.776 128.076, 142.559 126.409, 145.033 125.022, 147.469 124.073, 149.134 123.280, 150.527 122.360, 152.143 121.029, 154.480 119.004, 158.034 116.731, 162.478 114.651, 167.486 113.323, 172.314 " fill="none" stroke="rgb(0, 0, 0)" stroke-linecap="butt" stroke-linejoin="round" stroke-opacity="1.0" stroke-width="3.0" />
            <path d=" M 135.470, 179.278 136.159, 178.363 137.395, 176.720 139.214, 174.304 141.989, 170.618 145.184, 166.014 148.266, 160.847 150.698, 155.470 151.947, 150.236 152.171, 145.647 151.531, 142.206 150.188, 140.414 147.870, 140.375 145.551, 140.340 144.166, 140.325 " fill="none" stroke="rgb(0, 0, 0)" stroke-linecap="butt" stroke-linejoin="round" stroke-opacity="1.0" stroke-width="3.0" />
            <path d=" M 139.760, 166.163 139.761, 166.154 139.880, 165.407 139.898, 165.293 140.523, 161.373 141.466, 156.849 142.677, 152.723 144.246, 149.128 145.975, 146.327 146.934, 145.338 147.667, 144.583 149.122, 144.159 150.145, 145.318 150.621, 147.705 150.441, 150.966 149.491, 154.745 147.661, 158.687 145.169, 162.752 142.237, 166.899 " fill="none" stroke="rgb(0, 0, 0)" stroke-linecap="butt" stroke-linejoin="round" stroke-opacity="1.0" stroke-width="3.0" />
            <path d=" M 142.500, 166.788 142.148, 167.017 140.469, 168.111 140.407, 168.151 " fill="none" stroke="rgb(0, 0, 0)" stroke-linecap="butt" stroke-linejoin="round" stroke-opacity="1.0" stroke-width="3.0" />
            <path d=" M 140.255, 161.603 139.890, 165.305 139.880, 165.407 139.834, 165.879 140.229, 167.448 140.407, 168.151 140.528, 168.274 140.469, 168.111 140.229, 167.448 139.761, 166.156 139.761, 166.154 139.746, 166.114 " fill="none" stroke="rgb(0, 0, 0)" stroke-linecap="butt" stroke-linejoin="round" stroke-opacity="1.0" stroke-width="3.0" />
            <path d=" M 139.834, 165.879 139.761, 166.156 139.760, 166.163 139.085, 171.086 142.148, 167.017 142.237, 166.899 142.500, 166.788 " fill="none" stroke="rgb(0, 0, 0)" stroke-linecap="butt" stroke-linejoin="round" stroke-opacity="1.0" stroke-width="3.0" />
            <path d=" M 126.048, 172.314 126.634, 170.997 128.196, 167.486 131.158, 162.478 134.234, 158.034 135.281, 156.642 136.063, 155.604 136.909, 154.480 138.668, 152.143 139.884, 150.527 140.727, 149.407 140.933, 149.134 141.530, 148.340 142.186, 147.469 142.661, 146.838 142.735, 146.739 144.019, 145.033 144.055, 144.992 144.740, 144.196 146.151, 142.559 148.301, 140.776 150.188, 140.414 " fill="none" stroke="rgb(0, 0, 0)" stroke-linecap="butt" stroke-linejoin="round" stroke-opacity="1.0" stroke-width="3.0" />
            <path d=" M 136.438, 162.176 136.383, 162.520 136.256, 163.320 135.615, 167.369 134.643, 172.214 133.446, 176.537 133.250, 177.013 " fill="none" stroke="rgb(0, 0, 0)" stroke-linecap="butt" stroke-linejoin="round" stroke-opacity="1.0" stroke-width="3.0" />
            <path d=" M 136.438, 162.176 137.185, 156.809 134.217, 160.752 134.135, 160.862 134.090, 160.921 133.885, 161.212 133.095, 162.338 131.213, 165.016 130.852, 165.619 128.868, 168.921 128.774, 169.077 127.972, 170.881 127.334, 172.314 " fill="none" stroke="rgb(0, 0, 0)" stroke-linecap="butt" stroke-linejoin="round" stroke-opacity="1.0" stroke-width="3.0" />
            <path d=" M 133.095, 162.338 132.904, 163.543 132.343, 167.083 131.371, 171.928 130.772, 174.091 " fill="none" stroke="rgb(0, 0, 0)" stroke-linecap="butt" stroke-linejoin="round" stroke-opacity="1.0" stroke-width="3.0" />
            <path d=" M 133.674, 161.072 134.135, 160.862 134.178, 160.842 135.662, 160.164 135.664, 160.163 136.174, 161.834 136.366, 162.465 136.383, 162.520 136.383, 162.521 " fill="none" stroke="rgb(0, 0, 0)" stroke-linecap="butt" stroke-linejoin="round" stroke-opacity="1.0" stroke-width="3.0" />
            <path d=" M 136.383, 162.521 136.329, 162.614 136.366, 162.465 136.438, 162.176 " fill="none" stroke="rgb(0, 0, 0)" stroke-linecap="butt" stroke-linejoin="round" stroke-opacity="1.0" stroke-width="3.0" />
            <path d=" M 133.801, 161.262 133.885, 161.212 134.062, 161.108 135.662, 160.164 135.822, 160.069 136.174, 161.834 136.329, 162.614 136.256, 163.320 135.859, 167.182 " fill="none" stroke="rgb(0, 0, 0)" stroke-linecap="butt" stroke-linejoin="round" stroke-opacity="1.0" stroke-width="3.0" />
            <path d=" M 135.664, 160.163 135.822, 160.069 " fill="none" stroke="rgb(0, 0, 0)" stroke-linecap="butt" stroke-linejoin="round" stroke-opacity="1.0" stroke-width="3.0" />
            <path d=" M 134.090, 160.921 133.801, 161.262 " fill="none" stroke="rgb(0, 0, 0)" stroke-linecap="butt" stroke-linejoin="round" stroke-opacity="1.0" stroke-width="3.0" />
            <path d=" M 139.898, 165.293 141.897, 162.466 144.389, 158.401 146.219, 154.458 147.169, 150.680 147.349, 147.419 146.934, 145.338 " fill="none" stroke="rgb(0, 0, 0)" stroke-linecap="butt" stroke-linejoin="round" stroke-opacity="1.0" stroke-width="3.0" />
            <path d=" M 102.707, 189.308 112.707, 189.308 117.472, 189.308 125.456, 189.308 133.441, 189.308 134.414, 189.308 139.656, 189.308 139.656, 182.814 135.470, 179.278 134.414, 178.386 133.250, 177.013 130.772, 174.091 129.265, 172.314 127.355, 172.314 127.334, 172.314 126.048, 172.314 124.779, 172.314 123.935, 172.314 123.453, 172.314 121.521, 172.314 117.766, 172.314 115.468, 172.314 114.554, 172.314 113.323, 172.314 107.484, 172.314 " fill="none" stroke="rgb(0, 0, 0)" stroke-linecap="butt" stroke-linejoin="round" stroke-opacity="1.0" stroke-width="3.0" />
            <path d=" M 102.657, 189.308 105.350, 189.308 107.484, 189.308 110.641, 189.308 117.472, 189.308 118.626, 189.308 123.453, 189.308 " fill="none" stroke="rgb(0, 0, 0)" stroke-linecap="butt" stroke-linejoin="round" stroke-opacity="1.0" stroke-width="3.0" />
            <path d=" M 118.626, 179.950 115.468, 179.950 113.071, 179.950 110.641, 179.950 107.484, 179.950 102.657, 179.950 " fill="none" stroke="rgb(0, 0, 0)" stroke-linecap="butt" stroke-linejoin="round" stroke-opacity="1.0" stroke-width="3.0" />
            <path d=" M 102.657, 189.308 96.454, 189.308 93.811, 189.308 93.811, 182.814 102.707, 178.386 107.484, 172.314 104.179, 177.542 103.645, 178.386 102.863, 179.624 102.657, 179.950 102.657, 189.308 " fill="none" stroke="rgb(0, 0, 0)" stroke-linecap="butt" stroke-linejoin="round" stroke-opacity="1.0" stroke-width="3.0" />
            <path d=" M 117.472, 189.308 117.472, 189.308 " fill="none" stroke="rgb(0, 0, 0)" stroke-linecap="butt" stroke-linejoin="round" stroke-opacity="1.0" stroke-width="3.0" />
            <path d=" M 96.454, 182.814 93.811, 182.814 " fill="none" stroke="rgb(0, 0, 0)" stroke-linecap="butt" stroke-linejoin="round" stroke-opacity="1.0" stroke-width="3.0" />
            <path d=" M 96.454, 189.308 96.454, 182.814 102.863, 179.624 " fill="none" stroke="rgb(0, 0, 0)" stroke-linecap="butt" stroke-linejoin="round" stroke-opacity="1.0" stroke-width="3.0" />
            <path d=" M 115.468, 172.314 115.468, 172.314 " fill="none" stroke="rgb(0, 0, 0)" stroke-linecap="butt" stroke-linejoin="round" stroke-opacity="1.0" stroke-width="3.0" />
            <path d=" M 126.210, 189.308 123.453, 189.308 123.453, 187.770 123.453, 183.351 123.453, 179.848 123.453, 173.955 123.453, 172.314 " fill="none" stroke="rgb(0, 0, 0)" stroke-linecap="butt" stroke-linejoin="round" stroke-opacity="1.0" stroke-width="3.0" />
            <path d=" M 126.210, 178.386 126.039, 178.009 124.513, 174.648 123.704, 172.867 123.453, 172.314 121.095, 176.044 118.626, 179.950 118.626, 183.332 118.626, 184.405 118.626, 187.771 118.626, 189.308 " fill="none" stroke="rgb(0, 0, 0)" stroke-linecap="butt" stroke-linejoin="round" stroke-opacity="1.0" stroke-width="3.0" />
            <path d=" M 126.210, 178.386 129.265, 172.314 " fill="none" stroke="rgb(0, 0, 0)" stroke-linecap="butt" stroke-linejoin="round" stroke-opacity="1.0" stroke-width="3.0" />
            <path d=" M 131.452, 189.308 126.210, 189.308 126.210, 187.786 126.210, 184.492 126.210, 182.099 126.210, 178.386 131.452, 182.814 " fill="none" stroke="rgb(0, 0, 0)" stroke-linecap="butt" stroke-linejoin="round" stroke-opacity="1.0" stroke-width="3.0" />
            <path d=" M 139.656, 182.814 132.808, 182.814 131.452, 182.814 131.452, 184.482 131.452, 189.308 139.656, 189.308 " fill="none" stroke="rgb(0, 0, 0)" stroke-linecap="butt" stroke-linejoin="round" stroke-opacity="1.0" stroke-width="3.0" />
            <path d=" M 142.849, 120.341 143.281, 121.131 143.077, 131.129 142.890, 140.314 " fill="none" stroke="rgb(0, 0, 0)" stroke-linecap="butt" stroke-linejoin="round" stroke-opacity="1.0" stroke-width="3.0" />
            <path d=" M 138.009, 120.341 138.351, 121.131 139.496, 131.065 140.561, 140.307 140.670, 141.256 140.734, 141.812 " fill="none" stroke="rgb(0, 0, 0)" stroke-linecap="butt" stroke-linejoin="round" stroke-opacity="1.0" stroke-width="3.0" />
            <path d=" M 124.354, 125.084 125.042, 127.087 126.054, 127.441 128.477, 128.288 129.163, 128.528 129.808, 128.346 130.168, 128.244 134.265, 127.087 135.517, 125.680 137.359, 123.610 136.677, 120.341 " fill="none" stroke="rgb(0, 0, 0)" stroke-linecap="butt" stroke-linejoin="round" stroke-opacity="1.0" stroke-width="3.0" />
            <path d=" M 140.670, 141.256 140.472, 140.307 140.364, 139.791 137.116, 130.333 135.517, 125.680 " fill="none" stroke="rgb(0, 0, 0)" stroke-linecap="butt" stroke-linejoin="round" stroke-opacity="1.0" stroke-width="3.0" />
            <path d=" M 90.253, 123.409 93.390, 123.409 93.830, 123.409 103.830, 123.409 113.830, 123.409 116.587, 123.409 " fill="none" stroke="rgb(0, 0, 0)" stroke-linecap="butt" stroke-linejoin="round" stroke-opacity="1.0" stroke-width="3.0" />
            <path d=" M 112.956, 120.862 102.956, 120.862 93.885, 120.862 " fill="none" stroke="rgb(0, 0, 0)" stroke-linecap="butt" stroke-linejoin="round" stroke-opacity="1.0" stroke-width="3.0" />
            <path d=" M 116.587, 87.768 116.587, 87.768 116.587, 90.709 116.587, 91.528 116.587, 91.872 116.587, 95.160 116.587, 105.160 116.587, 106.898 116.587, 106.937 116.587, 109.807 116.587, 110.812 116.587, 110.875 116.587, 116.733 116.587, 123.409 119.502, 123.410 120.164, 123.410 120.164, 123.410 120.164, 123.410 121.098, 125.084 124.354, 125.084 126.103, 125.084 127.209, 123.410 127.209, 123.410 " fill="none" stroke="rgb(0, 0, 0)" stroke-linecap="butt" stroke-linejoin="round" stroke-opacity="1.0" stroke-width="3.0" />
            <path d=" M 130.809, 117.275 130.809, 119.172 130.809, 121.095 130.809, 123.410 127.209, 123.410 " fill="none" stroke="rgb(0, 0, 0)" stroke-linecap="butt" stroke-linejoin="round" stroke-opacity="1.0" stroke-width="3.0" />
            <path d=" M 120.164, 87.768 119.905, 87.768 119.905, 87.768 116.587, 87.768 116.162, 87.768 115.232, 87.768 105.232, 87.768 100.875, 87.768 93.830, 87.768 93.390, 87.768 90.253, 87.768 90.253, 94.548 " fill="none" stroke="rgb(0, 0, 0)" stroke-linecap="butt" stroke-linejoin="round" stroke-opacity="1.0" stroke-width="3.0" />
            <path d=" M 107.124, 102.571 107.124, 96.072 104.475, 96.072 101.253, 96.072 97.700, 96.072 97.668, 96.072 94.115, 96.072 93.830, 96.072 93.390, 96.072 90.531, 96.072 " fill="none" stroke="rgb(0, 0, 0)" stroke-linecap="butt" stroke-linejoin="round" stroke-opacity="1.0" stroke-width="3.0" />
            <path d=" M 90.531, 102.571 93.390, 102.571 93.830, 102.571 97.668, 102.571 99.717, 102.571 101.253, 102.571 107.124, 102.571 101.253, 102.571 99.717, 102.571 " fill="none" stroke="rgb(0, 0, 0)" stroke-linecap="butt" stroke-linejoin="round" stroke-opacity="1.0" stroke-width="3.0" />
            <path d=" M 90.531, 102.571 93.390, 102.571 93.830, 102.571 94.115, 102.571 97.668, 102.571 97.700, 102.571 99.717, 102.571 99.717, 102.571 " fill="none" stroke="rgb(0, 0, 0)" stroke-linecap="butt" stroke-linejoin="round" stroke-opacity="1.0" stroke-width="3.0" />
            <path d=" M 112.956, 113.422 109.339, 113.422 104.475, 113.422 94.475, 113.422 93.830, 113.422 93.390, 113.422 90.268, 113.422 90.268, 120.862 93.390, 120.862 93.830, 120.862 93.885, 120.862 93.885, 120.862 " fill="none" stroke="rgb(0, 0, 0)" stroke-linecap="butt" stroke-linejoin="round" stroke-opacity="1.0" stroke-width="3.0" />
            <path d=" M 112.956, 113.422 112.956, 120.862 109.339, 120.862 " fill="none" stroke="rgb(0, 0, 0)" stroke-linecap="butt" stroke-linejoin="round" stroke-opacity="1.0" stroke-width="3.0" />
            <path d=" M 90.253, 104.095 90.253, 110.875 90.253, 120.875 90.253, 123.409 93.390, 123.410 93.830, 123.410 93.830, 123.409 " fill="none" stroke="rgb(0, 0, 0)" stroke-linecap="butt" stroke-linejoin="round" stroke-opacity="1.0" stroke-width="3.0" />
            <path d=" M 90.268, 120.862 93.390, 120.862 93.830, 120.862 93.885, 120.862 103.885, 120.862 109.339, 120.862 109.339, 113.422 109.339, 113.422 " fill="none" stroke="rgb(0, 0, 0)" stroke-linecap="butt" stroke-linejoin="round" stroke-opacity="1.0" stroke-width="3.0" />
            <path d=" M 94.301, 118.033 94.301, 118.033 93.885, 118.033 93.830, 118.033 93.390, 118.033 90.731, 118.033 90.731, 116.252 93.390, 116.252 93.830, 116.252 93.885, 116.252 101.736, 116.252 104.475, 116.252 105.306, 116.252 105.306, 118.033 " fill="none" stroke="rgb(0, 0, 0)" stroke-linecap="butt" stroke-linejoin="round" stroke-opacity="1.0" stroke-width="3.0" />
            <path d=" M 79.650, 104.095 89.650, 104.095 90.253, 104.095 90.531, 104.095 90.531, 102.571 90.531, 102.571 90.531, 101.703 90.531, 101.703 90.531, 96.939 90.531, 96.939 90.531, 96.072 90.531, 96.072 90.531, 94.548 90.253, 94.548 85.246, 94.548 75.246, 94.548 74.365, 94.548 74.365, 104.095 79.650, 104.095 " fill="none" stroke="rgb(0, 0, 0)" stroke-linecap="butt" stroke-linejoin="round" stroke-opacity="1.0" stroke-width="3.0" />
            <path d=" M 74.365, 104.095 84.365, 104.095 85.246, 104.095 " fill="none" stroke="rgb(0, 0, 0)" stroke-linecap="butt" stroke-linejoin="round" stroke-opacity="1.0" stroke-width="3.0" />
            <path d=" M 82.520, 96.939 82.520, 96.939 82.520, 101.703 81.387, 101.703 79.650, 101.703 77.091, 101.703 " fill="none" stroke="rgb(0, 0, 0)" stroke-linecap="butt" stroke-linejoin="round" stroke-opacity="1.0" stroke-width="3.0" />
            <path d=" M 85.246, 94.548 85.246, 96.939 85.246, 101.703 85.246, 102.571 85.246, 102.571 85.246, 104.095 90.253, 104.095 90.531, 104.095 " fill="none" stroke="rgb(0, 0, 0)" stroke-linecap="butt" stroke-linejoin="round" stroke-opacity="1.0" stroke-width="3.0" />
            <path d=" M 101.736, 118.033 105.306, 118.033 95.306, 118.033 94.301, 118.033 " fill="none" stroke="rgb(0, 0, 0)" stroke-linecap="butt" stroke-linejoin="round" stroke-opacity="1.0" stroke-width="3.0" />
            <path d=" M 90.731, 118.033 93.390, 118.033 93.830, 118.033 93.885, 118.033 94.301, 118.033 101.736, 118.033 101.736, 116.252 101.736, 116.252 " fill="none" stroke="rgb(0, 0, 0)" stroke-linecap="butt" stroke-linejoin="round" stroke-opacity="1.0" stroke-width="3.0" />
            <path d=" M 93.390, 123.410 93.390, 125.084 98.394, 125.084 108.394, 125.084 118.394, 125.084 120.531, 125.084 124.354, 125.084 124.624, 125.084 124.925, 125.084 126.103, 125.084 " fill="none" stroke="rgb(0, 0, 0)" stroke-linecap="butt" stroke-linejoin="round" stroke-opacity="1.0" stroke-width="3.0" />
            <path d=" M 121.098, 84.569 120.369, 87.067 120.164, 87.768 " fill="none" stroke="rgb(0, 0, 0)" stroke-linecap="butt" stroke-linejoin="round" stroke-opacity="1.0" stroke-width="3.0" />
            <path d=" M 128.986, 87.768 127.209, 87.768 126.966, 87.067 126.103, 84.569 121.098, 84.569 119.905, 84.569 119.905, 84.569 119.905, 84.569 " fill="none" stroke="rgb(0, 0, 0)" stroke-linecap="butt" stroke-linejoin="round" stroke-opacity="1.0" stroke-width="3.0" />
            <path d=" M 119.905, 84.569 119.208, 84.569 109.208, 84.569 99.208, 84.569 93.390, 84.569 93.830, 87.768 " fill="none" stroke="rgb(0, 0, 0)" stroke-linecap="butt" stroke-linejoin="round" stroke-opacity="1.0" stroke-width="3.0" />
            <path d=" M 93.390, 84.569 93.390, 87.768 " fill="none" stroke="rgb(0, 0, 0)" stroke-linecap="butt" stroke-linejoin="round" stroke-opacity="1.0" stroke-width="3.0" />
            <path d=" M 93.830, 123.410 93.390, 125.084 " fill="none" stroke="rgb(0, 0, 0)" stroke-linecap="butt" stroke-linejoin="round" stroke-opacity="1.0" stroke-width="3.0" />
            <path d=" M 77.091, 96.939 77.091, 101.703 " fill="none" stroke="rgb(0, 0, 0)" stroke-linecap="butt" stroke-linejoin="round" stroke-opacity="1.0" stroke-width="3.0" />
            <path d=" M 82.520, 96.939 77.091, 96.939 82.520, 96.939 " fill="none" stroke="rgb(0, 0, 0)" stroke-linecap="butt" stroke-linejoin="round" stroke-opacity="1.0" stroke-width="3.0" />
            <path d=" M 200.634, 123.410 203.369, 123.410 207.657, 123.410 217.657, 123.410 226.968, 123.410 " fill="none" stroke="rgb(0, 0, 0)" stroke-linecap="butt" stroke-linejoin="round" stroke-opacity="1.0" stroke-width="3.0" />
            <path d=" M 223.337, 120.862 213.337, 120.862 209.049, 120.862 204.265, 120.862 " fill="none" stroke="rgb(0, 0, 0)" stroke-linecap="butt" stroke-linejoin="round" stroke-opacity="1.0" stroke-width="3.0" />
            <path d=" M 186.412, 117.281 186.412, 123.410 188.545, 123.410 189.744, 123.410 " fill="none" stroke="rgb(0, 0, 0)" stroke-linecap="butt" stroke-linejoin="round" stroke-opacity="1.0" stroke-width="3.0" />
            <path d=" M 189.744, 114.054 189.744, 118.970 189.744, 120.422 189.744, 123.410 189.744, 123.410 189.744, 125.084 191.101, 125.084 191.836, 125.084 193.920, 125.084 198.139, 125.084 198.883, 125.084 199.704, 125.084 202.234, 125.084 202.524, 125.084 202.794, 125.084 206.628, 125.084 216.628, 125.084 217.453, 125.084 222.457, 125.084 223.391, 123.410 226.968, 123.410 226.968, 113.410 226.968, 110.875 226.968, 104.095 " fill="none" stroke="rgb(0, 0, 0)" stroke-linecap="butt" stroke-linejoin="round" stroke-opacity="1.0" stroke-width="3.0" />
            <path d=" M 186.412, 123.410 188.545, 123.410 189.744, 123.410 " fill="none" stroke="rgb(0, 0, 0)" stroke-linecap="butt" stroke-linejoin="round" stroke-opacity="1.0" stroke-width="3.0" />
            <path d=" M 226.968, 94.548 226.968, 87.768 223.391, 87.768 216.347, 87.768 211.916, 87.768 210.985, 87.768 200.985, 87.768 200.634, 87.768 199.299, 87.768 199.299, 87.768 197.327, 87.768 197.327, 87.768 197.057, 87.768 " fill="none" stroke="rgb(0, 0, 0)" stroke-linecap="butt" stroke-linejoin="round" stroke-opacity="1.0" stroke-width="3.0" />
            <path d=" M 217.505, 102.571 217.505, 102.571 226.690, 102.571 " fill="none" stroke="rgb(0, 0, 0)" stroke-linecap="butt" stroke-linejoin="round" stroke-opacity="1.0" stroke-width="3.0" />
            <path d=" M 217.505, 102.571 216.499, 102.571 210.098, 102.571 " fill="none" stroke="rgb(0, 0, 0)" stroke-linecap="butt" stroke-linejoin="round" stroke-opacity="1.0" stroke-width="3.0" />
            <path d=" M 200.634, 87.768 200.634, 87.768 200.634, 91.738 200.634, 101.738 200.634, 102.709 200.634, 110.875 200.634, 116.733 200.634, 123.410 197.057, 123.410 197.057, 123.410 197.057, 123.410 194.749, 125.084 193.920, 125.084 191.836, 125.084 191.101, 125.084 189.744, 125.084 " fill="none" stroke="rgb(0, 0, 0)" stroke-linecap="butt" stroke-linejoin="round" stroke-opacity="1.0" stroke-width="3.0" />
            <path d=" M 226.690, 102.571 217.505, 102.571 216.499, 102.571 210.098, 102.571 210.098, 96.072 212.746, 96.072 214.744, 96.072 224.744, 96.072 226.690, 96.072 " fill="none" stroke="rgb(0, 0, 0)" stroke-linecap="butt" stroke-linejoin="round" stroke-opacity="1.0" stroke-width="3.0" />
            <path d=" M 223.337, 120.862 223.337, 120.862 226.954, 120.862 226.954, 113.422 216.954, 113.422 212.771, 113.422 212.746, 113.422 211.983, 113.422 211.119, 113.422 208.795, 113.422 207.882, 113.422 206.800, 113.422 204.742, 113.422 204.265, 113.422 " fill="none" stroke="rgb(0, 0, 0)" stroke-linecap="butt" stroke-linejoin="round" stroke-opacity="1.0" stroke-width="3.0" />
            <path d=" M 207.882, 120.862 204.265, 120.862 204.265, 120.801 204.265, 116.733 204.265, 113.422 " fill="none" stroke="rgb(0, 0, 0)" stroke-linecap="butt" stroke-linejoin="round" stroke-opacity="1.0" stroke-width="3.0" />
            <path d=" M 226.954, 120.862 223.337, 120.862 213.337, 120.862 209.049, 120.862 207.882, 120.862 207.882, 116.733 207.882, 113.422 207.882, 113.422 " fill="none" stroke="rgb(0, 0, 0)" stroke-linecap="butt" stroke-linejoin="round" stroke-opacity="1.0" stroke-width="3.0" />
            <path d=" M 226.690, 104.095 226.968, 104.095 236.968, 104.095 237.571, 104.095 242.856, 104.095 242.856, 94.548 232.856, 94.548 231.975, 94.548 226.968, 94.548 226.690, 94.548 226.690, 96.072 226.690, 96.072 226.690, 96.939 226.690, 96.939 226.690, 101.703 226.690, 101.703 226.690, 102.571 226.690, 102.571 226.690, 104.095 " fill="none" stroke="rgb(0, 0, 0)" stroke-linecap="butt" stroke-linejoin="round" stroke-opacity="1.0" stroke-width="3.0" />
            <path d=" M 231.975, 104.095 241.975, 104.095 242.856, 104.095 " fill="none" stroke="rgb(0, 0, 0)" stroke-linecap="butt" stroke-linejoin="round" stroke-opacity="1.0" stroke-width="3.0" />
            <path d=" M 240.130, 101.703 237.571, 101.703 235.834, 101.703 234.701, 101.703 234.701, 96.939 234.701, 96.939 " fill="none" stroke="rgb(0, 0, 0)" stroke-linecap="butt" stroke-linejoin="round" stroke-opacity="1.0" stroke-width="3.0" />
            <path d=" M 226.690, 104.095 226.968, 104.095 231.975, 104.095 231.975, 102.571 231.975, 102.571 231.975, 101.703 231.975, 96.939 231.975, 94.548 " fill="none" stroke="rgb(0, 0, 0)" stroke-linecap="butt" stroke-linejoin="round" stroke-opacity="1.0" stroke-width="3.0" />
            <path d=" M 222.921, 118.033 222.921, 118.033 223.337, 118.033 226.490, 118.033 226.490, 116.252 223.337, 116.252 215.485, 116.252 212.746, 116.252 211.915, 116.252 " fill="none" stroke="rgb(0, 0, 0)" stroke-linecap="butt" stroke-linejoin="round" stroke-opacity="1.0" stroke-width="3.0" />
            <path d=" M 211.915, 118.033 211.915, 116.252 " fill="none" stroke="rgb(0, 0, 0)" stroke-linecap="butt" stroke-linejoin="round" stroke-opacity="1.0" stroke-width="3.0" />
            <path d=" M 222.921, 118.033 212.921, 118.033 211.915, 118.033 215.485, 118.033 " fill="none" stroke="rgb(0, 0, 0)" stroke-linecap="butt" stroke-linejoin="round" stroke-opacity="1.0" stroke-width="3.0" />
            <path d=" M 215.485, 116.252 215.485, 116.252 215.485, 118.033 222.921, 118.033 223.337, 118.033 226.490, 118.033 " fill="none" stroke="rgb(0, 0, 0)" stroke-linecap="butt" stroke-linejoin="round" stroke-opacity="1.0" stroke-width="3.0" />
            <path d=" M 223.391, 87.768 222.457, 84.569 212.457, 84.569 202.457, 84.569 199.299, 84.569 199.299, 84.569 198.023, 84.569 197.327, 84.569 197.327, 84.569 194.749, 84.569 189.744, 84.569 189.744, 87.768 189.744, 87.768 189.744, 90.239 189.744, 90.483 " fill="none" stroke="rgb(0, 0, 0)" stroke-linecap="butt" stroke-linejoin="round" stroke-opacity="1.0" stroke-width="3.0" />
            <path d=" M 194.749, 84.569 196.551, 87.067 197.057, 87.768 " fill="none" stroke="rgb(0, 0, 0)" stroke-linecap="butt" stroke-linejoin="round" stroke-opacity="1.0" stroke-width="3.0" />
            <path d=" M 190.470, 88.384 191.816, 88.384 194.023, 88.384 194.023, 88.384 194.023, 89.729 194.023, 90.709 194.023, 90.841 194.023, 91.685 194.023, 91.738 194.023, 92.521 194.023, 93.279 194.023, 95.466 194.023, 95.668 194.023, 96.640 194.023, 100.538 194.023, 105.017 194.023, 107.060 192.516, 107.060 192.054, 107.060 191.830, 107.060 " fill="none" stroke="rgb(0, 0, 0)" stroke-linecap="butt" stroke-linejoin="round" stroke-opacity="1.0" stroke-width="3.0" />
            <path d=" M 234.701, 96.939 240.130, 96.939 " fill="none" stroke="rgb(0, 0, 0)" stroke-linecap="butt" stroke-linejoin="round" stroke-opacity="1.0" stroke-width="3.0" />
            <path d=" M 234.701, 96.939 240.130, 96.939 240.130, 101.703 " fill="none" stroke="rgb(0, 0, 0)" stroke-linecap="butt" stroke-linejoin="round" stroke-opacity="1.0" stroke-width="3.0" />
            <path d=" M 101.253, 102.571 101.253, 102.571 " fill="none" stroke="rgb(0, 0, 0)" stroke-linecap="butt" stroke-linejoin="round" stroke-opacity="1.0" stroke-width="3.0" />
            <path d=" M 103.645, 178.386 102.707, 178.386 " fill="none" stroke="rgb(0, 0, 0)" stroke-linecap="butt" stroke-linejoin="round" stroke-opacity="1.0" stroke-width="3.0" />
            <path d=" M 119.838, 70.799 119.729, 70.857 118.634, 71.436 118.634, 71.436 " fill="none" stroke="rgb(0, 0, 0)" stroke-linecap="butt" stroke-linejoin="round" stroke-opacity="1.0" stroke-width="3.0" />
            <path d=" M 119.905, 71.072 119.905, 70.799 " fill="none" stroke="rgb(0, 0, 0)" stroke-linecap="butt" stroke-linejoin="round" stroke-opacity="1.0" stroke-width="3.0" />
            <path d=" M 119.905, 84.569 119.905, 78.827 119.905, 77.010 119.905, 71.072 119.905, 70.799 " fill="none" stroke="rgb(0, 0, 0)" stroke-linecap="butt" stroke-linejoin="round" stroke-opacity="1.0" stroke-width="3.0" />
            <path d=" M 118.869, 67.198 118.634, 67.486 118.634, 67.486 " fill="none" stroke="rgb(0, 0, 0)" stroke-linecap="butt" stroke-linejoin="round" stroke-opacity="1.0" stroke-width="3.0" />
            <path d=" M 118.869, 61.261 118.634, 61.549 118.634, 61.549 118.634, 61.549 118.634, 61.549 " fill="none" stroke="rgb(0, 0, 0)" stroke-linecap="butt" stroke-linejoin="round" stroke-opacity="1.0" stroke-width="3.0" />
            <path d=" M 118.869, 59.436 118.634, 59.560 118.634, 59.560 " fill="none" stroke="rgb(0, 0, 0)" stroke-linecap="butt" stroke-linejoin="round" stroke-opacity="1.0" stroke-width="3.0" />
            <path d=" M 118.869, 53.498 118.634, 53.623 " fill="none" stroke="rgb(0, 0, 0)" stroke-linecap="butt" stroke-linejoin="round" stroke-opacity="1.0" stroke-width="3.0" />
            <path d=" M 119.905, 49.129 119.905, 48.692 " fill="none" stroke="rgb(0, 0, 0)" stroke-linecap="butt" stroke-linejoin="round" stroke-opacity="1.0" stroke-width="3.0" />
            <path d=" M 118.634, 65.321 118.307, 64.868 " fill="none" stroke="rgb(0, 0, 0)" stroke-linecap="butt" stroke-linejoin="round" stroke-opacity="1.0" stroke-width="3.0" />
            <path d=" M 118.634, 60.319 118.307, 60.107 118.634, 60.107 " fill="none" stroke="rgb(0, 0, 0)" stroke-linecap="butt" stroke-linejoin="round" stroke-opacity="1.0" stroke-width="3.0" />
            <path d=" M 123.855, 51.342 123.855, 55.434 " fill="none" stroke="rgb(0, 0, 0)" stroke-linecap="butt" stroke-linejoin="round" stroke-opacity="1.0" stroke-width="3.0" />
            <path d=" M 123.855, 42.754 123.855, 46.479 " fill="none" stroke="rgb(0, 0, 0)" stroke-linecap="butt" stroke-linejoin="round" stroke-opacity="1.0" stroke-width="3.0" />
            <path d=" M 127.209, 123.410 127.314, 123.410 127.488, 123.410 128.411, 123.410 130.809, 123.410 " fill="none" stroke="rgb(0, 0, 0)" stroke-linecap="butt" stroke-linejoin="round" stroke-opacity="1.0" stroke-width="3.0" />
            <path d=" M 128.477, 128.288 131.726, 137.745 132.637, 140.397 133.595, 143.184 " fill="none" stroke="rgb(0, 0, 0)" stroke-linecap="butt" stroke-linejoin="round" stroke-opacity="1.0" stroke-width="3.0" />
            <path d=" M 129.192, 87.067 126.966, 87.067 " fill="none" stroke="rgb(0, 0, 0)" stroke-linecap="butt" stroke-linejoin="round" stroke-opacity="1.0" stroke-width="3.0" />
            <path d=" M 120.531, 125.084 125.767, 133.604 130.140, 140.719 132.199, 144.069 " fill="none" stroke="rgb(0, 0, 0)" stroke-linecap="butt" stroke-linejoin="round" stroke-opacity="1.0" stroke-width="3.0" />
            <path d=" M 133.595, 143.184 132.263, 140.403 127.943, 131.385 126.054, 127.441 " fill="none" stroke="rgb(0, 0, 0)" stroke-linecap="butt" stroke-linejoin="round" stroke-opacity="1.0" stroke-width="3.0" />
            <path d=" M 144.166, 140.325 144.404, 130.328 144.642, 120.341 " fill="none" stroke="rgb(0, 0, 0)" stroke-linecap="butt" stroke-linejoin="round" stroke-opacity="1.0" stroke-width="3.0" />
            <path d=" M 148.085, 42.001 138.085, 42.001 128.085, 42.001 123.855, 42.001 " fill="none" stroke="rgb(0, 0, 0)" stroke-linecap="butt" stroke-linejoin="round" stroke-opacity="1.0" stroke-width="3.0" />
            <path d=" M 119.905, 66.505 119.905, 66.505 119.905, 66.505 " fill="none" stroke="rgb(0, 0, 0)" stroke-linecap="butt" stroke-linejoin="round" stroke-opacity="1.0" stroke-width="3.0" />
            <path d=" M 137.808, 66.505 127.808, 66.505 119.905, 66.505 " fill="none" stroke="rgb(0, 0, 0)" stroke-linecap="butt" stroke-linejoin="round" stroke-opacity="1.0" stroke-width="3.0" />
            <path d=" M 119.905, 60.785 119.905, 60.785 119.905, 60.785 119.905, 60.785 " fill="none" stroke="rgb(0, 0, 0)" stroke-linecap="butt" stroke-linejoin="round" stroke-opacity="1.0" stroke-width="3.0" />
            <path d=" M 140.531, 60.785 130.531, 60.785 120.531, 60.785 119.905, 60.785 " fill="none" stroke="rgb(0, 0, 0)" stroke-linecap="butt" stroke-linejoin="round" stroke-opacity="1.0" stroke-width="3.0" />
            <path d=" M 119.905, 70.799 119.905, 70.799 119.905, 70.799 129.905, 70.799 135.763, 70.799 " fill="none" stroke="rgb(0, 0, 0)" stroke-linecap="butt" stroke-linejoin="round" stroke-opacity="1.0" stroke-width="3.0" />
            <path d=" M 119.905, 70.799 119.905, 70.799 " fill="none" stroke="rgb(0, 0, 0)" stroke-linecap="butt" stroke-linejoin="round" stroke-opacity="1.0" stroke-width="3.0" />
            <path d=" M 119.905, 67.160 119.905, 67.160 119.905, 67.160 129.905, 67.160 137.495, 67.160 " fill="none" stroke="rgb(0, 0, 0)" stroke-linecap="butt" stroke-linejoin="round" stroke-opacity="1.0" stroke-width="3.0" />
            <path d=" M 182.499, 119.601 182.737, 129.598 182.975, 139.595 182.993, 140.330 " fill="none" stroke="rgb(0, 0, 0)" stroke-linecap="butt" stroke-linejoin="round" stroke-opacity="1.0" stroke-width="3.0" />
            <path d=" M 184.269, 140.316 184.065, 130.318 183.878, 121.131 185.779, 117.657 " fill="none" stroke="rgb(0, 0, 0)" stroke-linecap="butt" stroke-linejoin="round" stroke-opacity="1.0" stroke-width="3.0" />
            <path d=" M 186.423, 141.823 186.502, 141.142 186.598, 140.306 187.743, 130.372 188.545, 123.410 " fill="none" stroke="rgb(0, 0, 0)" stroke-linecap="butt" stroke-linejoin="round" stroke-opacity="1.0" stroke-width="3.0" />
            <path d=" M 189.744, 87.768 188.245, 87.768 " fill="none" stroke="rgb(0, 0, 0)" stroke-linecap="butt" stroke-linejoin="round" stroke-opacity="1.0" stroke-width="3.0" />
            <path d=" M 190.470, 90.412 190.470, 89.748 190.470, 88.384 191.816, 88.384 194.023, 88.384 " fill="none" stroke="rgb(0, 0, 0)" stroke-linecap="butt" stroke-linejoin="round" stroke-opacity="1.0" stroke-width="3.0" />
            <path d=" M 197.327, 82.948 197.327, 84.569 " fill="none" stroke="rgb(0, 0, 0)" stroke-linecap="butt" stroke-linejoin="round" stroke-opacity="1.0" stroke-width="3.0" />
            <path d=" M 197.327, 70.799 197.327, 80.799 197.327, 82.948 " fill="none" stroke="rgb(0, 0, 0)" stroke-linecap="butt" stroke-linejoin="round" stroke-opacity="1.0" stroke-width="3.0" />
            <path d=" M 169.146, 42.754 169.146, 42.754 " fill="none" stroke="rgb(0, 0, 0)" stroke-linecap="butt" stroke-linejoin="round" stroke-opacity="1.0" stroke-width="3.0" />
            <path d=" M 197.327, 70.799 197.327, 70.799 " fill="none" stroke="rgb(0, 0, 0)" stroke-linecap="butt" stroke-linejoin="round" stroke-opacity="1.0" stroke-width="3.0" />
            <path d=" M 181.468, 70.799 191.468, 70.799 197.327, 70.799 " fill="none" stroke="rgb(0, 0, 0)" stroke-linecap="butt" stroke-linejoin="round" stroke-opacity="1.0" stroke-width="3.0" />
            <path d=" M 179.736, 67.160 189.736, 67.160 197.327, 67.160 197.327, 67.160 " fill="none" stroke="rgb(0, 0, 0)" stroke-linecap="butt" stroke-linejoin="round" stroke-opacity="1.0" stroke-width="3.0" />
            <path d=" M 198.598, 69.517 198.598, 65.568 198.598, 65.321 " fill="none" stroke="rgb(0, 0, 0)" stroke-linecap="butt" stroke-linejoin="round" stroke-opacity="1.0" stroke-width="3.0" />
            <path d=" M 198.023, 84.569 199.299, 83.974 " fill="none" stroke="rgb(0, 0, 0)" stroke-linecap="butt" stroke-linejoin="round" stroke-opacity="1.0" stroke-width="3.0" />
            <path d=" M 193.526, 143.263 194.513, 140.390 197.762, 130.932 198.671, 128.288 " fill="none" stroke="rgb(0, 0, 0)" stroke-linecap="butt" stroke-linejoin="round" stroke-opacity="1.0" stroke-width="3.0" />
            <path d=" M 193.526, 143.263 194.899, 140.396 199.219, 131.378 201.107, 127.436 " fill="none" stroke="rgb(0, 0, 0)" stroke-linecap="butt" stroke-linejoin="round" stroke-opacity="1.0" stroke-width="3.0" />
            <path d=" M 194.980, 144.035 197.065, 140.643 202.301, 132.123 206.628, 125.084 " fill="none" stroke="rgb(0, 0, 0)" stroke-linecap="butt" stroke-linejoin="round" stroke-opacity="1.0" stroke-width="3.0" />
            <path d=" M 212.252, 189.308 212.252, 189.308 " fill="none" stroke="rgb(0, 0, 0)" stroke-linecap="butt" stroke-linejoin="round" stroke-opacity="1.0" stroke-width="3.0" />
        </g>
    </g>
</svg>
