<?xml version='1.0' encoding='ascii'?>
<svg xmlns="http://www.w3.org/2000/svg" height="240" version="1.1" width="320">
    <g id="RenderLayer_LineSet" inkscape:groupmode="lineset" inkscape:label="RenderLayer_LineSet" xmlns:inkscape="http://www.inkscape.org/namespaces/inkscape">
        <g id="strokes" inkscape:groupmode="layer" inkscape:label="strokes" xmlns:inkscape="http://www.inkscape.org/namespaces/inkscape">
            <path d=" M 141.473, 69.059 141.473, 69.059 141.473, 69.059 141.473, 69.059 150.869, 65.635 160.264, 62.210 169.660, 58.786 170.378, 58.524 180.272, 59.979 184.243, 60.563 193.851, 63.337 203.526, 66.131 203.527, 66.131 210.635, 73.165 217.744, 80.198 225.019, 87.396 225.019, 87.396 225.036, 87.415 " fill="none" stroke="rgb(0, 0, 0)" stroke-linecap="butt" stroke-linejoin="round" stroke-opacity="1.0" stroke-width="3.0" />
            <path d=" M 147.976, 60.785 147.976, 60.785 " fill="none" stroke="rgb(0, 0, 0)" stroke-linecap="butt" stroke-linejoin="round" stroke-opacity="1.0" stroke-width="3.0" />
            <path d=" M 196.103, 108.075 205.840, 110.353 206.592, 110.529 216.208, 113.274 225.696, 115.983 " fill="none" stroke="rgb(0, 0, 0)" stroke-linecap="butt" stroke-linejoin="round" stroke-opacity="1.0" stroke-width="3.0" />
            <path d=" M 115.794, 71.506 122.761, 64.332 125.463, 61.549 126.090, 59.994 119.123, 67.168 114.258, 72.177 115.794, 71.506 " fill="none" stroke="rgb(0, 0, 0)" stroke-linecap="butt" stroke-linejoin="round" stroke-opacity="1.0" stroke-width="3.0" />
            <path d=" M 129.530, 65.498 122.563, 72.672 119.861, 75.455 119.234, 77.010 126.201, 69.836 131.066, 64.826 129.530, 65.498 " fill="none" stroke="rgb(0, 0, 0)" stroke-linecap="butt" stroke-linejoin="round" stroke-opacity="1.0" stroke-width="3.0" />
            <path d=" M 124.565, 84.893 131.531, 77.720 138.498, 70.546 138.995, 70.033 138.995, 70.033 138.995, 70.033 138.995, 70.033 " fill="none" stroke="rgb(0, 0, 0)" stroke-linecap="butt" stroke-linejoin="round" stroke-opacity="1.0" stroke-width="3.0" />
            <path d=" M 114.538, 46.283 114.538, 46.283 107.571, 53.457 100.605, 60.631 100.107, 61.143 96.712, 60.107 89.745, 67.281 87.565, 69.526 88.700, 72.889 88.700, 72.889 88.700, 72.889 88.700, 72.889 88.700, 72.889 94.815, 78.827 94.815, 78.827 94.815, 78.827 100.929, 84.764 101.636, 85.451 " fill="none" stroke="rgb(0, 0, 0)" stroke-linecap="butt" stroke-linejoin="round" stroke-opacity="1.0" stroke-width="3.0" />
            <path d=" M 92.468, 74.287 94.815, 78.827 " fill="none" stroke="rgb(0, 0, 0)" stroke-linecap="butt" stroke-linejoin="round" stroke-opacity="1.0" stroke-width="3.0" />
            <path d=" M 147.976, 60.785 147.976, 60.785 141.862, 54.848 135.747, 48.910 130.014, 43.342 129.633, 42.972 " fill="none" stroke="rgb(0, 0, 0)" stroke-linecap="butt" stroke-linejoin="round" stroke-opacity="1.0" stroke-width="3.0" />
            <path d=" M 126.525, 39.955 123.519, 37.035 118.072, 42.644 118.072, 42.644 118.072, 42.644 " fill="none" stroke="rgb(0, 0, 0)" stroke-linecap="butt" stroke-linejoin="round" stroke-opacity="1.0" stroke-width="3.0" />
            <path d=" M 123.519, 37.035 126.525, 39.955 126.525, 39.955 129.633, 42.972 " fill="none" stroke="rgb(0, 0, 0)" stroke-linecap="butt" stroke-linejoin="round" stroke-opacity="1.0" stroke-width="3.0" />
            <path d=" M 120.056, 83.974 124.565, 84.893 124.565, 84.893 124.565, 84.893 117.598, 92.067 113.158, 96.640 " fill="none" stroke="rgb(0, 0, 0)" stroke-linecap="butt" stroke-linejoin="round" stroke-opacity="1.0" stroke-width="3.0" />
            <path d=" M 113.158, 96.640 112.106, 92.160 " fill="none" stroke="rgb(0, 0, 0)" stroke-linecap="butt" stroke-linejoin="round" stroke-opacity="1.0" stroke-width="3.0" />
            <path d=" M 113.158, 96.640 113.158, 96.640 120.124, 89.466 124.565, 84.893 124.565, 84.893 124.565, 84.893 124.565, 84.893 " fill="none" stroke="rgb(0, 0, 0)" stroke-linecap="butt" stroke-linejoin="round" stroke-opacity="1.0" stroke-width="3.0" />
            <path d=" M 107.043, 90.702 113.158, 96.640 113.158, 96.640 107.043, 90.702 101.636, 85.451 100.929, 84.764 " fill="none" stroke="rgb(0, 0, 0)" stroke-linecap="butt" stroke-linejoin="round" stroke-opacity="1.0" stroke-width="3.0" />
            <path d=" M 204.718, 119.986 214.541, 118.112 224.364, 116.237 225.696, 115.983 234.616, 111.463 239.086, 109.197 239.086, 109.197 " fill="none" stroke="rgb(0, 0, 0)" stroke-linecap="butt" stroke-linejoin="round" stroke-opacity="1.0" stroke-width="3.0" />
            <path d=" M 239.086, 109.197 239.086, 109.197 239.086, 109.197 238.819, 108.598 237.699, 106.073 236.710, 103.848 " fill="none" stroke="rgb(0, 0, 0)" stroke-linecap="butt" stroke-linejoin="round" stroke-opacity="1.0" stroke-width="3.0" />
            <path d=" M 196.103, 93.717 206.021, 94.994 208.532, 95.317 212.713, 96.072 " fill="none" stroke="rgb(0, 0, 0)" stroke-linecap="butt" stroke-linejoin="round" stroke-opacity="1.0" stroke-width="3.0" />
            <path d=" M 138.995, 70.033 138.995, 70.033 138.995, 70.033 138.995, 70.033 132.029, 77.207 125.062, 84.381 124.565, 84.893 124.565, 84.893 124.565, 84.893 133.941, 88.369 135.393, 88.907 " fill="none" stroke="rgb(0, 0, 0)" stroke-linecap="butt" stroke-linejoin="round" stroke-opacity="1.0" stroke-width="3.0" />
            <path d=" M 225.316, 87.559 218.186, 80.548 211.056, 73.536 203.926, 66.524 203.527, 66.131 " fill="none" stroke="rgb(0, 0, 0)" stroke-linecap="butt" stroke-linejoin="round" stroke-opacity="1.0" stroke-width="3.0" />
            <path d=" M 232.687, 96.072 226.140, 88.512 225.316, 87.559 225.019, 87.396 " fill="none" stroke="rgb(0, 0, 0)" stroke-linecap="butt" stroke-linejoin="round" stroke-opacity="1.0" stroke-width="3.0" />
            <path d=" M 130.014, 43.342 126.525, 39.955 126.525, 39.955 " fill="none" stroke="rgb(0, 0, 0)" stroke-linecap="butt" stroke-linejoin="round" stroke-opacity="1.0" stroke-width="3.0" />
            <path d=" M 210.470, 96.072 209.589, 95.913 199.671, 94.636 196.103, 94.177 " fill="none" stroke="rgb(0, 0, 0)" stroke-linecap="butt" stroke-linejoin="round" stroke-opacity="1.0" stroke-width="3.0" />
            <path d=" M 236.710, 103.848 229.619, 102.571 229.619, 102.571 " fill="none" stroke="rgb(0, 0, 0)" stroke-linecap="butt" stroke-linejoin="round" stroke-opacity="1.0" stroke-width="3.0" />
            <path d=" M 117.283, 41.878 117.283, 41.878 " fill="none" stroke="rgb(0, 0, 0)" stroke-linecap="butt" stroke-linejoin="round" stroke-opacity="1.0" stroke-width="3.0" />
            <path d=" M 118.072, 42.644 117.283, 41.878 117.283, 41.878 " fill="none" stroke="rgb(0, 0, 0)" stroke-linecap="butt" stroke-linejoin="round" stroke-opacity="1.0" stroke-width="3.0" />
            <path d=" M 139.784, 70.799 139.784, 70.799 " fill="none" stroke="rgb(0, 0, 0)" stroke-linecap="butt" stroke-linejoin="round" stroke-opacity="1.0" stroke-width="3.0" />
            <path d=" M 117.283, 41.878 117.283, 41.878 113.749, 45.517 113.750, 45.517 113.750, 45.517 114.538, 46.283 114.538, 46.283 114.538, 46.283 120.258, 51.837 123.274, 54.766 126.379, 57.782 126.767, 58.158 133.275, 64.478 138.995, 70.033 138.995, 70.033 138.995, 70.033 138.995, 70.033 139.784, 70.799 139.784, 70.799 " fill="none" stroke="rgb(0, 0, 0)" stroke-linecap="butt" stroke-linejoin="round" stroke-opacity="1.0" stroke-width="3.0" />
            <path d=" M 143.317, 67.160 143.317, 67.160 142.529, 66.394 142.529, 66.394 142.529, 66.394 142.529, 66.394 136.809, 60.840 130.300, 54.519 129.913, 54.143 123.792, 48.199 123.228, 47.651 118.072, 42.644 118.072, 42.644 118.072, 42.644 118.072, 42.644 117.283, 41.878 117.283, 41.878 " fill="none" stroke="rgb(0, 0, 0)" stroke-linecap="butt" stroke-linejoin="round" stroke-opacity="1.0" stroke-width="3.0" />
            <path d=" M 139.784, 70.799 141.473, 69.059 141.473, 69.059 143.317, 67.160 143.317, 67.160 143.317, 67.160 143.317, 67.160 143.317, 67.160 143.317, 67.160 " fill="none" stroke="rgb(0, 0, 0)" stroke-linecap="butt" stroke-linejoin="round" stroke-opacity="1.0" stroke-width="3.0" />
            <path d=" M 143.317, 67.160 143.317, 67.160 " fill="none" stroke="rgb(0, 0, 0)" stroke-linecap="butt" stroke-linejoin="round" stroke-opacity="1.0" stroke-width="3.0" />
            <path d=" M 103.565, 59.630 110.532, 52.456 113.234, 49.673 113.861, 48.118 106.894, 55.292 102.029, 60.302 103.565, 59.630 " fill="none" stroke="rgb(0, 0, 0)" stroke-linecap="butt" stroke-linejoin="round" stroke-opacity="1.0" stroke-width="3.0" />
            <path d=" M 117.301, 53.623 110.335, 60.796 107.632, 63.580 107.005, 65.135 113.972, 57.961 118.837, 52.951 117.301, 53.623 " fill="none" stroke="rgb(0, 0, 0)" stroke-linecap="butt" stroke-linejoin="round" stroke-opacity="1.0" stroke-width="3.0" />
            <path d=" M 109.680, 65.568 116.646, 58.394 119.349, 55.611 119.975, 54.056 113.009, 61.230 108.144, 66.240 109.680, 65.568 " fill="none" stroke="rgb(0, 0, 0)" stroke-linecap="butt" stroke-linejoin="round" stroke-opacity="1.0" stroke-width="3.0" />
            <path d=" M 123.416, 59.560 116.449, 66.734 113.746, 69.517 113.120, 71.072 120.086, 63.898 124.952, 58.888 123.416, 59.560 " fill="none" stroke="rgb(0, 0, 0)" stroke-linecap="butt" stroke-linejoin="round" stroke-opacity="1.0" stroke-width="3.0" />
            <path d=" M 99.323, 79.746 94.815, 78.827 100.929, 84.764 " fill="none" stroke="rgb(0, 0, 0)" stroke-linecap="butt" stroke-linejoin="round" stroke-opacity="1.0" stroke-width="3.0" />
            <path d=" M 121.908, 77.443 128.875, 70.269 131.578, 67.486 132.204, 65.931 125.237, 73.105 120.372, 78.115 121.908, 77.443 " fill="none" stroke="rgb(0, 0, 0)" stroke-linecap="butt" stroke-linejoin="round" stroke-opacity="1.0" stroke-width="3.0" />
            <path d=" M 135.644, 71.436 128.678, 78.610 125.975, 81.393 125.349, 82.948 132.315, 75.774 137.180, 70.764 135.644, 71.436 " fill="none" stroke="rgb(0, 0, 0)" stroke-linecap="butt" stroke-linejoin="round" stroke-opacity="1.0" stroke-width="3.0" />
            <path d=" M 107.273, 71.560 106.221, 67.080 101.615, 64.868 " fill="none" stroke="rgb(0, 0, 0)" stroke-linecap="butt" stroke-linejoin="round" stroke-opacity="1.0" stroke-width="3.0" />
            <path d=" M 124.565, 84.893 124.565, 84.893 124.565, 84.893 132.040, 90.144 " fill="none" stroke="rgb(0, 0, 0)" stroke-linecap="butt" stroke-linejoin="round" stroke-opacity="1.0" stroke-width="3.0" />
            <path d=" M 147.976, 60.785 147.976, 60.785 147.976, 60.785 " fill="none" stroke="rgb(0, 0, 0)" stroke-linecap="butt" stroke-linejoin="round" stroke-opacity="1.0" stroke-width="3.0" />
            <path d=" M 147.976, 60.785 147.976, 60.785 " fill="none" stroke="rgb(0, 0, 0)" stroke-linecap="butt" stroke-linejoin="round" stroke-opacity="1.0" stroke-width="3.0" />
            <path d=" M 94.461, 78.484 94.815, 78.827 100.929, 84.764 107.043, 90.702 113.158, 96.640 120.124, 89.466 124.565, 84.893 124.565, 84.893 " fill="none" stroke="rgb(0, 0, 0)" stroke-linecap="butt" stroke-linejoin="round" stroke-opacity="1.0" stroke-width="3.0" />
            <path d=" M 88.700, 72.889 88.700, 72.889 94.461, 78.484 94.815, 78.827 " fill="none" stroke="rgb(0, 0, 0)" stroke-linecap="butt" stroke-linejoin="round" stroke-opacity="1.0" stroke-width="3.0" />
            <path d=" M 124.565, 84.893 124.565, 84.893 " fill="none" stroke="rgb(0, 0, 0)" stroke-linecap="butt" stroke-linejoin="round" stroke-opacity="1.0" stroke-width="3.0" />
            <path d=" M 113.158, 96.640 113.158, 96.640 113.158, 96.640 " fill="none" stroke="rgb(0, 0, 0)" stroke-linecap="butt" stroke-linejoin="round" stroke-opacity="1.0" stroke-width="3.0" />
            <path d=" M 94.815, 78.827 100.929, 84.764 107.043, 90.702 113.158, 96.640 120.124, 89.466 124.565, 84.893 " fill="none" stroke="rgb(0, 0, 0)" stroke-linecap="butt" stroke-linejoin="round" stroke-opacity="1.0" stroke-width="3.0" />
            <path d=" M 88.700, 72.889 88.700, 72.889 " fill="none" stroke="rgb(0, 0, 0)" stroke-linecap="butt" stroke-linejoin="round" stroke-opacity="1.0" stroke-width="3.0" />
            <path d=" M 239.086, 109.197 239.086, 109.197 " fill="none" stroke="rgb(0, 0, 0)" stroke-linecap="butt" stroke-linejoin="round" stroke-opacity="1.0" stroke-width="3.0" />
            <path d=" M 204.718, 119.986 214.541, 118.112 224.364, 116.237 225.696, 115.983 234.616, 111.463 239.086, 109.197 238.819, 108.598 " fill="none" stroke="rgb(0, 0, 0)" stroke-linecap="butt" stroke-linejoin="round" stroke-opacity="1.0" stroke-width="3.0" />
            <path d=" M 124.565, 84.893 124.565, 84.893 124.565, 84.893 " fill="none" stroke="rgb(0, 0, 0)" stroke-linecap="butt" stroke-linejoin="round" stroke-opacity="1.0" stroke-width="3.0" />
            <path d=" M 238.756, 105.067 237.768, 102.842 237.768, 102.842 " fill="none" stroke="rgb(0, 0, 0)" stroke-linecap="butt" stroke-linejoin="round" stroke-opacity="1.0" stroke-width="3.0" />
            <path d=" M 113.750, 45.517 113.750, 45.517 114.538, 46.283 " fill="none" stroke="rgb(0, 0, 0)" stroke-linecap="butt" stroke-linejoin="round" stroke-opacity="1.0" stroke-width="3.0" />
            <path d=" M 143.317, 67.160 143.317, 67.160 143.317, 67.160 " fill="none" stroke="rgb(0, 0, 0)" stroke-linecap="butt" stroke-linejoin="round" stroke-opacity="1.0" stroke-width="3.0" />
            <path d=" M 143.317, 67.160 143.317, 67.160 " fill="none" stroke="rgb(0, 0, 0)" stroke-linecap="butt" stroke-linejoin="round" stroke-opacity="1.0" stroke-width="3.0" />
            <path d=" M 147.976, 60.785 147.976, 60.785 " fill="none" stroke="rgb(0, 0, 0)" stroke-linecap="butt" stroke-linejoin="round" stroke-opacity="1.0" stroke-width="3.0" />
            <path d=" M 237.699, 106.073 238.756, 105.067 237.768, 102.842 237.768, 102.842 237.768, 102.842 237.555, 102.571 237.555, 102.571 237.555, 102.571 " fill="none" stroke="rgb(0, 0, 0)" stroke-linecap="butt" stroke-linejoin="round" stroke-opacity="1.0" stroke-width="3.0" />
            <path d=" M 99.973, 140.306 99.895, 140.306 99.053, 140.315 98.214, 140.340 97.377, 140.375 96.541, 140.414 92.598, 142.205 90.255, 145.647 90.036, 150.236 92.461, 155.470 98.054, 160.847 105.434, 166.014 113.224, 170.618 120.043, 174.304 124.512, 176.720 127.551, 178.363 130.077, 179.729 133.011, 181.315 137.271, 183.618 141.173, 185.422 141.332, 185.495 " fill="none" stroke="rgb(0, 0, 0)" stroke-linecap="butt" stroke-linejoin="round" stroke-opacity="1.0" stroke-width="3.0" />
            <path d=" M 171.804, 189.308 171.838, 189.308 " fill="none" stroke="rgb(0, 0, 0)" stroke-linecap="butt" stroke-linejoin="round" stroke-opacity="1.0" stroke-width="3.0" />
            <path d=" M 144.362, 189.308 154.362, 189.308 157.078, 189.308 164.246, 189.308 165.992, 189.308 166.173, 189.308 166.691, 189.308 168.898, 189.308 171.804, 189.308 171.838, 189.308 173.764, 189.308 179.254, 189.308 179.430, 189.308 179.430, 189.308 " fill="none" stroke="rgb(0, 0, 0)" stroke-linecap="butt" stroke-linejoin="round" stroke-opacity="1.0" stroke-width="3.0" />
            <path d=" M 171.804, 189.308 179.254, 189.308 185.066, 189.308 185.066, 189.308 " fill="none" stroke="rgb(0, 0, 0)" stroke-linecap="butt" stroke-linejoin="round" stroke-opacity="1.0" stroke-width="3.0" />
            <path d=" M 173.764, 189.308 173.764, 189.308 " fill="none" stroke="rgb(0, 0, 0)" stroke-linecap="butt" stroke-linejoin="round" stroke-opacity="1.0" stroke-width="3.0" />
            <path d=" M 165.992, 189.308 166.691, 189.308 168.898, 189.308 171.804, 189.308 171.804, 189.308 " fill="none" stroke="rgb(0, 0, 0)" stroke-linecap="butt" stroke-linejoin="round" stroke-opacity="1.0" stroke-width="3.0" />
            <path d=" M 144.362, 189.308 144.362, 189.308 141.456, 189.308 138.550, 189.308 " fill="none" stroke="rgb(0, 0, 0)" stroke-linecap="butt" stroke-linejoin="round" stroke-opacity="1.0" stroke-width="3.0" />
            <path d=" M 141.173, 185.422 138.550, 189.308 148.550, 189.308 154.632, 189.308 157.078, 189.308 166.691, 189.308 166.691, 189.308 " fill="none" stroke="rgb(0, 0, 0)" stroke-linecap="butt" stroke-linejoin="round" stroke-opacity="1.0" stroke-width="3.0" />
            <path d=" M 164.246, 189.308 164.246, 189.308 165.992, 189.308 166.691, 189.308 176.691, 189.308 179.254, 189.308 182.160, 189.308 " fill="none" stroke="rgb(0, 0, 0)" stroke-linecap="butt" stroke-linejoin="round" stroke-opacity="1.0" stroke-width="3.0" />
            <path d=" M 179.254, 189.308 179.254, 189.308 " fill="none" stroke="rgb(0, 0, 0)" stroke-linecap="butt" stroke-linejoin="round" stroke-opacity="1.0" stroke-width="3.0" />
            <path d=" M 165.992, 189.308 165.992, 189.308 " fill="none" stroke="rgb(0, 0, 0)" stroke-linecap="butt" stroke-linejoin="round" stroke-opacity="1.0" stroke-width="3.0" />
            <path d=" M 164.246, 189.308 166.691, 189.308 " fill="none" stroke="rgb(0, 0, 0)" stroke-linecap="butt" stroke-linejoin="round" stroke-opacity="1.0" stroke-width="3.0" />
            <path d=" M 128.883, 127.215 131.641, 128.528 137.606, 122.208 143.306, 116.168 143.306, 116.168 " fill="none" stroke="rgb(0, 0, 0)" stroke-linecap="butt" stroke-linejoin="round" stroke-opacity="1.0" stroke-width="3.0" />
            <path d=" M 126.678, 91.738 126.674, 91.738 119.403, 98.604 117.809, 100.110 114.128, 109.407 110.446, 118.705 106.764, 128.002 103.082, 137.300 101.876, 140.345 " fill="none" stroke="rgb(0, 0, 0)" stroke-linecap="butt" stroke-linejoin="round" stroke-opacity="1.0" stroke-width="3.0" />
            <path d=" M 147.797, 87.768 147.141, 87.067 140.385, 87.067 135.393, 88.907 135.393, 88.907 132.040, 90.144 130.150, 90.841 130.166, 91.738 130.166, 91.738 130.234, 95.466 130.234, 95.466 130.238, 95.668 130.238, 95.668 130.246, 96.128 130.246, 96.132 130.272, 97.578 130.273, 97.627 130.396, 104.369 130.396, 104.385 130.396, 104.385 130.400, 104.389 133.156, 107.335 133.156, 107.335 135.970, 110.343 135.971, 110.344 137.284, 111.748 137.284, 111.748 137.513, 111.992 137.515, 111.994 141.111, 115.838 143.306, 116.168 143.306, 116.168 143.546, 116.204 143.933, 116.262 " fill="none" stroke="rgb(0, 0, 0)" stroke-linecap="butt" stroke-linejoin="round" stroke-opacity="1.0" stroke-width="3.0" />
            <path d=" M 140.385, 87.067 140.385, 87.067 144.425, 91.384 144.674, 91.650 145.482, 92.514 145.767, 92.819 " fill="none" stroke="rgb(0, 0, 0)" stroke-linecap="butt" stroke-linejoin="round" stroke-opacity="1.0" stroke-width="3.0" />
            <path d=" M 133.319, 93.346 134.104, 93.057 134.108, 93.055 135.471, 92.553 140.471, 90.709 140.587, 90.833 140.587, 90.833 140.720, 90.975 141.045, 91.322 141.955, 92.295 142.204, 92.561 144.036, 94.519 144.612, 95.134 144.897, 95.439 " fill="none" stroke="rgb(0, 0, 0)" stroke-linecap="butt" stroke-linejoin="round" stroke-opacity="1.0" stroke-width="3.0" />
            <path d=" M 134.289, 93.346 134.163, 93.346 134.159, 93.346 133.319, 93.346 133.492, 102.810 135.451, 104.904 135.451, 104.904 136.589, 106.120 136.593, 106.125 140.978, 110.812 141.465, 110.296 141.607, 110.146 142.076, 109.649 142.076, 109.649 142.186, 109.532 142.186, 109.532 143.546, 108.091 143.884, 107.733 143.933, 107.681 " fill="none" stroke="rgb(0, 0, 0)" stroke-linecap="butt" stroke-linejoin="round" stroke-opacity="1.0" stroke-width="3.0" />
            <path d=" M 140.265, 107.526 141.607, 110.146 " fill="none" stroke="rgb(0, 0, 0)" stroke-linecap="butt" stroke-linejoin="round" stroke-opacity="1.0" stroke-width="3.0" />
            <path d=" M 134.289, 93.346 134.765, 94.984 " fill="none" stroke="rgb(0, 0, 0)" stroke-linecap="butt" stroke-linejoin="round" stroke-opacity="1.0" stroke-width="3.0" />
            <path d=" M 143.933, 103.640 143.546, 104.049 142.472, 105.188 142.258, 105.415 142.258, 105.415 141.985, 105.703 140.265, 107.526 136.637, 103.648 136.637, 103.648 135.991, 102.958 135.986, 102.952 134.889, 101.780 134.796, 96.698 134.796, 96.675 134.765, 94.984 137.498, 93.976 139.106, 93.383 139.901, 93.090 " fill="none" stroke="rgb(0, 0, 0)" stroke-linecap="butt" stroke-linejoin="round" stroke-opacity="1.0" stroke-width="3.0" />
            <path d=" M 144.164, 97.646 143.879, 97.342 143.579, 97.022 140.124, 93.328 139.901, 93.090 139.933, 93.041 141.045, 91.322 " fill="none" stroke="rgb(0, 0, 0)" stroke-linecap="butt" stroke-linejoin="round" stroke-opacity="1.0" stroke-width="3.0" />
            <path d=" M 141.465, 110.296 136.346, 104.824 136.341, 104.819 135.938, 104.388 135.938, 104.388 134.461, 102.810 134.303, 94.102 134.302, 94.079 134.289, 93.346 135.805, 92.787 140.720, 90.975 " fill="none" stroke="rgb(0, 0, 0)" stroke-linecap="butt" stroke-linejoin="round" stroke-opacity="1.0" stroke-width="3.0" />
            <path d=" M 101.880, 140.346 101.876, 140.345 101.748, 140.340 100.898, 140.315 100.050, 140.306 99.973, 140.306 99.208, 140.315 98.369, 140.340 97.532, 140.375 96.696, 140.414 96.675, 140.424 92.753, 142.205 90.410, 145.647 90.190, 150.236 92.616, 155.470 98.208, 160.847 105.589, 166.014 113.378, 170.618 120.197, 174.304 124.667, 176.720 127.705, 178.363 130.232, 179.729 133.166, 181.315 137.426, 183.618 141.210, 185.367 141.369, 185.441 " fill="none" stroke="rgb(0, 0, 0)" stroke-linecap="butt" stroke-linejoin="round" stroke-opacity="1.0" stroke-width="3.0" />
            <path d=" M 118.086, 168.151 117.959, 168.119 117.925, 168.111 117.806, 168.080 116.779, 167.821 116.489, 167.748 113.594, 167.017 113.304, 166.943 112.960, 166.857 112.688, 166.788 113.375, 166.899 " fill="none" stroke="rgb(0, 0, 0)" stroke-linecap="butt" stroke-linejoin="round" stroke-opacity="1.0" stroke-width="3.0" />
            <path d=" M 120.233, 166.114 120.186, 166.154 120.184, 166.156 120.053, 166.269 119.093, 167.100 119.057, 167.131 119.024, 167.160 118.963, 167.213 118.745, 167.402 118.691, 167.448 118.684, 167.454 118.087, 167.971 117.925, 168.111 117.890, 168.141 117.842, 168.183 117.737, 168.274 118.086, 168.151 118.685, 167.455 118.691, 167.448 118.735, 167.397 118.916, 167.186 118.966, 167.128 118.981, 167.111 119.009, 167.079 119.140, 166.925 119.943, 165.991 119.980, 165.949 120.040, 165.879 120.184, 166.156 120.188, 166.163 120.431, 167.445 120.439, 167.487 120.538, 168.009 120.557, 168.106 120.623, 168.455 120.641, 168.552 121.115, 171.050 121.121, 171.086 121.073, 171.060 113.730, 167.090 113.594, 167.017 113.375, 166.899 106.216, 162.752 100.229, 158.687 96.001, 154.745 94.119, 150.966 94.218, 147.705 95.932, 145.318 98.862, 144.172 98.896, 144.159 99.116, 144.183 99.236, 144.197 100.305, 144.314 100.309, 144.315 102.332, 144.537 102.450, 144.551 102.452, 144.551 102.454, 144.551 102.745, 144.583 103.032, 144.701 103.035, 144.702 103.438, 144.868 103.513, 144.898 103.897, 145.056 103.900, 145.057 105.614, 145.761 105.617, 145.762 106.056, 145.942 106.059, 145.944 106.992, 146.327 107.629, 146.756 107.632, 146.757 107.954, 146.975 107.957, 146.976 111.152, 149.128 114.737, 152.723 117.261, 156.849 118.990, 161.373 119.763, 164.462 119.999, 165.406 120.186, 166.154 120.188, 166.163 " fill="none" stroke="rgb(0, 0, 0)" stroke-linecap="butt" stroke-linejoin="round" stroke-opacity="1.0" stroke-width="3.0" />
            <path d=" M 96.696, 140.414 101.706, 140.775 101.710, 140.775 101.719, 140.776 103.462, 141.343 103.465, 141.344 107.194, 142.559 108.231, 143.043 108.234, 143.044 110.592, 144.144 110.595, 144.146 112.498, 145.033 117.002, 147.469 120.083, 149.134 122.659, 150.527 125.649, 152.143 129.971, 154.480 134.137, 156.732 134.256, 156.796 136.545, 158.034 141.154, 160.766 141.220, 160.805 141.667, 161.071 141.767, 161.130 144.041, 162.478 151.127, 167.486 156.050, 172.314 " fill="none" stroke="rgb(0, 0, 0)" stroke-linecap="butt" stroke-linejoin="round" stroke-opacity="1.0" stroke-width="3.0" />
            <path d=" M 143.005, 183.018 142.840, 182.954 142.618, 182.867 138.727, 180.164 135.346, 176.537 132.897, 172.214 131.146, 167.369 130.144, 163.319 129.956, 162.563 129.946, 162.520 129.915, 162.396 129.861, 162.176 " fill="none" stroke="rgb(0, 0, 0)" stroke-linecap="butt" stroke-linejoin="round" stroke-opacity="1.0" stroke-width="3.0" />
            <path d=" M 119.671, 161.603 119.999, 165.406 120.040, 165.879 " fill="none" stroke="rgb(0, 0, 0)" stroke-linecap="butt" stroke-linejoin="round" stroke-opacity="1.0" stroke-width="3.0" />
            <path d=" M 152.583, 172.314 149.283, 169.077 143.435, 165.016 136.915, 161.212 136.752, 161.117 136.656, 161.061 136.612, 161.036 136.505, 160.973 136.415, 160.921 136.379, 160.902 136.305, 160.862 134.925, 160.115 134.757, 160.025 133.648, 159.425 133.480, 159.334 130.177, 157.549 130.004, 157.455 128.808, 156.809 128.826, 156.902 129.861, 162.176 " fill="none" stroke="rgb(0, 0, 0)" stroke-linecap="butt" stroke-linejoin="round" stroke-opacity="1.0" stroke-width="3.0" />
            <path d=" M 143.455, 182.351 143.313, 182.252 139.895, 179.878 136.514, 176.251 134.065, 171.928 132.314, 167.083 131.029, 161.890 130.955, 161.513 " fill="none" stroke="rgb(0, 0, 0)" stroke-linecap="butt" stroke-linejoin="round" stroke-opacity="1.0" stroke-width="3.0" />
            <path d=" M 129.946, 162.521 129.946, 162.520 130.002, 162.465 130.090, 162.377 130.633, 161.834 130.825, 161.642 130.955, 161.513 132.278, 160.191 132.284, 160.186 132.307, 160.163 132.312, 160.164 133.628, 160.394 133.786, 160.422 134.838, 160.605 134.997, 160.633 136.077, 160.822 136.305, 160.862 136.557, 160.906 136.693, 160.929 136.779, 160.944 136.910, 160.967 137.510, 161.072 " fill="none" stroke="rgb(0, 0, 0)" stroke-linecap="butt" stroke-linejoin="round" stroke-opacity="1.0" stroke-width="3.0" />
            <path d=" M 130.522, 167.182 130.245, 164.354 130.144, 163.319 130.075, 162.614 130.633, 161.834 130.814, 161.582 130.935, 161.413 131.022, 161.292 131.875, 160.100 131.875, 160.100 131.897, 160.069 132.312, 160.164 132.822, 160.280 133.638, 160.466 133.798, 160.502 134.857, 160.744 135.017, 160.780 136.409, 161.097 136.541, 161.127 136.578, 161.136 136.661, 161.155 136.703, 161.164 136.836, 161.195 136.915, 161.212 137.134, 161.262 " fill="none" stroke="rgb(0, 0, 0)" stroke-linecap="butt" stroke-linejoin="round" stroke-opacity="1.0" stroke-width="3.0" />
            <path d=" M 129.861, 162.176 129.951, 162.361 130.002, 162.465 130.012, 162.485 130.075, 162.614 129.973, 162.540 129.946, 162.521 " fill="none" stroke="rgb(0, 0, 0)" stroke-linecap="butt" stroke-linejoin="round" stroke-opacity="1.0" stroke-width="3.0" />
            <path d=" M 131.897, 160.069 132.307, 160.163 " fill="none" stroke="rgb(0, 0, 0)" stroke-linecap="butt" stroke-linejoin="round" stroke-opacity="1.0" stroke-width="3.0" />
            <path d=" M 137.134, 161.262 136.778, 161.093 136.674, 161.044 136.624, 161.020 136.510, 160.966 " fill="none" stroke="rgb(0, 0, 0)" stroke-linecap="butt" stroke-linejoin="round" stroke-opacity="1.0" stroke-width="3.0" />
            <path d=" M 99.236, 144.197 99.202, 144.210 97.100, 145.032 95.386, 147.419 95.287, 150.680 97.169, 154.458 101.397, 158.401 107.384, 162.466 114.543, 166.612 116.779, 167.821 " fill="none" stroke="rgb(0, 0, 0)" stroke-linecap="butt" stroke-linejoin="round" stroke-opacity="1.0" stroke-width="3.0" />
            <path d=" M 160.682, 172.314 156.057, 167.486 149.292, 162.478 142.088, 158.034 135.751, 154.480 131.585, 152.143 128.703, 150.527 126.220, 149.134 123.250, 147.469 118.907, 145.033 114.205, 142.767 114.205, 142.767 " fill="none" stroke="rgb(0, 0, 0)" stroke-linecap="butt" stroke-linejoin="round" stroke-opacity="1.0" stroke-width="3.0" />
            <path d=" M 157.286, 189.308 154.841, 189.308 144.841, 189.308 138.758, 189.308 " fill="none" stroke="rgb(0, 0, 0)" stroke-linecap="butt" stroke-linejoin="round" stroke-opacity="1.0" stroke-width="3.0" />
            <path d=" M 166.200, 189.308 166.691, 189.308 168.898, 189.308 169.106, 189.308 171.804, 189.308 171.838, 189.308 172.012, 189.308 172.047, 189.308 173.764, 189.308 173.973, 189.308 179.254, 189.308 179.430, 189.308 179.462, 189.308 179.638, 189.308 182.368, 189.308 185.066, 189.308 185.274, 189.308 185.274, 179.950 176.608, 174.960 172.012, 172.314 " fill="none" stroke="rgb(0, 0, 0)" stroke-linecap="butt" stroke-linejoin="round" stroke-opacity="1.0" stroke-width="3.0" />
            <path d=" M 185.274, 179.950 185.066, 179.950 182.368, 179.950 179.462, 179.950 " fill="none" stroke="rgb(0, 0, 0)" stroke-linecap="butt" stroke-linejoin="round" stroke-opacity="1.0" stroke-width="3.0" />
            <path d=" M 166.200, 172.314 166.200, 172.314 166.200, 172.314 168.898, 173.867 169.106, 173.987 171.804, 175.541 171.822, 175.551 172.012, 175.661 172.031, 175.671 179.462, 179.950 179.462, 182.711 179.462, 189.308 " fill="none" stroke="rgb(0, 0, 0)" stroke-linecap="butt" stroke-linejoin="round" stroke-opacity="1.0" stroke-width="3.0" />
            <path d=" M 166.900, 189.308 166.691, 189.308 164.454, 189.308 164.246, 189.308 157.286, 189.308 157.286, 187.255 157.286, 187.180 157.286, 182.814 " fill="none" stroke="rgb(0, 0, 0)" stroke-linecap="butt" stroke-linejoin="round" stroke-opacity="1.0" stroke-width="3.0" />
            <path d=" M 166.900, 182.814 166.691, 182.814 164.454, 182.814 164.246, 182.814 162.275, 182.814 162.120, 182.814 157.286, 182.814 155.957, 180.407 155.886, 180.279 155.014, 178.699 154.874, 178.446 154.841, 178.386 " fill="none" stroke="rgb(0, 0, 0)" stroke-linecap="butt" stroke-linejoin="round" stroke-opacity="1.0" stroke-width="3.0" />
            <path d=" M 138.758, 189.308 141.664, 189.308 144.362, 189.308 144.570, 189.308 " fill="none" stroke="rgb(0, 0, 0)" stroke-linecap="butt" stroke-linejoin="round" stroke-opacity="1.0" stroke-width="3.0" />
            <path d=" M 169.106, 172.314 166.200, 172.314 160.682, 172.314 160.527, 172.314 157.235, 172.314 157.080, 172.314 156.288, 172.314 156.134, 172.314 156.050, 172.314 155.895, 172.314 154.043, 172.314 153.888, 172.314 153.137, 172.314 " fill="none" stroke="rgb(0, 0, 0)" stroke-linecap="butt" stroke-linejoin="round" stroke-opacity="1.0" stroke-width="3.0" />
            <path d=" M 154.841, 178.386 154.879, 178.365 155.038, 178.280 156.067, 177.730 156.227, 177.645 161.691, 174.724 161.819, 174.656 166.200, 172.314 166.200, 172.314 166.200, 172.314 166.200, 172.314 166.200, 172.314 166.200, 181.547 " fill="none" stroke="rgb(0, 0, 0)" stroke-linecap="butt" stroke-linejoin="round" stroke-opacity="1.0" stroke-width="3.0" />
            <path d=" M 169.106, 189.308 171.804, 189.308 171.838, 189.308 172.047, 189.308 173.764, 189.308 173.973, 189.308 179.254, 189.308 179.430, 189.308 " fill="none" stroke="rgb(0, 0, 0)" stroke-linecap="butt" stroke-linejoin="round" stroke-opacity="1.0" stroke-width="3.0" />
            <path d=" M 153.137, 172.314 152.583, 172.314 152.429, 172.314 150.231, 172.314 150.230, 172.315 150.230, 172.316 150.184, 172.383 150.133, 172.459 144.537, 180.747 144.302, 181.096 144.251, 181.171 144.030, 181.499 143.979, 181.575 143.455, 182.351 143.405, 182.424 143.005, 183.018 142.972, 183.066 142.340, 184.002 142.302, 184.058 141.369, 185.441 141.332, 185.495 138.758, 189.308 144.362, 189.308 144.570, 189.308 154.570, 189.308 157.078, 189.308 164.246, 189.308 164.454, 189.308 " fill="none" stroke="rgb(0, 0, 0)" stroke-linecap="butt" stroke-linejoin="round" stroke-opacity="1.0" stroke-width="3.0" />
            <path d=" M 150.231, 172.314 150.231, 172.314 154.841, 178.386 154.877, 178.386 155.032, 178.386 156.029, 178.386 156.183, 178.386 162.846, 178.386 163.001, 178.386 164.454, 178.386 165.992, 181.170 166.200, 181.547 166.900, 182.814 166.900, 189.308 166.691, 189.308 166.200, 189.308 " fill="none" stroke="rgb(0, 0, 0)" stroke-linecap="butt" stroke-linejoin="round" stroke-opacity="1.0" stroke-width="3.0" />
            <path d=" M 164.455, 189.308 164.456, 189.308 164.457, 189.308 165.992, 189.308 166.200, 189.308 " fill="none" stroke="rgb(0, 0, 0)" stroke-linecap="butt" stroke-linejoin="round" stroke-opacity="1.0" stroke-width="3.0" />
            <path d=" M 169.106, 172.314 169.106, 172.314 " fill="none" stroke="rgb(0, 0, 0)" stroke-linecap="butt" stroke-linejoin="round" stroke-opacity="1.0" stroke-width="3.0" />
            <path d=" M 144.570, 189.308 144.570, 189.308 154.570, 189.308 164.246, 189.308 166.381, 189.308 166.691, 189.308 168.898, 189.308 171.804, 189.308 171.838, 189.308 173.764, 189.308 173.973, 189.308 179.254, 189.308 179.430, 189.308 179.638, 189.308 179.638, 189.308 " fill="none" stroke="rgb(0, 0, 0)" stroke-linecap="butt" stroke-linejoin="round" stroke-opacity="1.0" stroke-width="3.0" />
            <path d=" M 130.483, 111.748 124.186, 119.516 122.877, 121.131 122.860, 121.155 122.860, 121.155 119.259, 126.295 119.258, 126.295 113.520, 134.484 108.982, 140.960 108.952, 141.002 108.486, 141.668 108.486, 141.668 " fill="none" stroke="rgb(0, 0, 0)" stroke-linecap="butt" stroke-linejoin="round" stroke-opacity="1.0" stroke-width="3.0" />
            <path d=" M 108.940, 142.103 108.940, 142.103 109.603, 141.219 109.634, 141.178 110.012, 140.674 110.012, 140.674 116.013, 132.674 122.013, 124.675 123.748, 122.362 123.748, 122.362 124.266, 121.671 124.266, 121.671 124.672, 121.131 124.783, 120.987 124.783, 120.987 125.447, 120.123 125.447, 120.123 131.544, 112.197 131.889, 111.748 131.474, 109.711 131.375, 109.223 131.375, 109.223 129.415, 99.604 129.410, 99.578 129.013, 97.633 129.012, 97.629 128.613, 95.668 128.613, 95.668 128.572, 95.469 128.572, 95.466 " fill="none" stroke="rgb(0, 0, 0)" stroke-linecap="butt" stroke-linejoin="round" stroke-opacity="1.0" stroke-width="3.0" />
            <path d=" M 131.889, 111.748 131.885, 111.748 130.483, 111.748 130.233, 110.432 130.233, 110.432 128.365, 100.609 127.412, 95.597 127.411, 95.594 126.678, 91.738 126.678, 91.738 " fill="none" stroke="rgb(0, 0, 0)" stroke-linecap="butt" stroke-linejoin="round" stroke-opacity="1.0" stroke-width="3.0" />
            <path d=" M 130.166, 91.738 126.678, 91.738 126.678, 91.738 126.674, 91.741 119.404, 98.607 117.813, 100.110 114.131, 109.407 110.450, 118.705 106.768, 128.002 103.086, 137.300 101.880, 140.346 101.878, 140.352 101.710, 140.775 " fill="none" stroke="rgb(0, 0, 0)" stroke-linecap="butt" stroke-linejoin="round" stroke-opacity="1.0" stroke-width="3.0" />
            <path d=" M 123.748, 122.362 124.666, 123.610 126.574, 125.290 126.576, 125.291 127.446, 126.058 127.449, 126.060 128.615, 127.087 128.883, 127.215 128.883, 127.215 131.641, 128.528 131.641, 128.528 137.606, 122.208 143.306, 116.168 143.306, 116.168 " fill="none" stroke="rgb(0, 0, 0)" stroke-linecap="butt" stroke-linejoin="round" stroke-opacity="1.0" stroke-width="3.0" />
            <path d=" M 186.518, 123.409 195.716, 123.409 196.103, 123.409 " fill="none" stroke="rgb(0, 0, 0)" stroke-linecap="butt" stroke-linejoin="round" stroke-opacity="1.0" stroke-width="3.0" />
            <path d=" M 194.781, 120.862 194.394, 120.862 187.839, 120.862 " fill="none" stroke="rgb(0, 0, 0)" stroke-linecap="butt" stroke-linejoin="round" stroke-opacity="1.0" stroke-width="3.0" />
            <path d=" M 147.444, 87.768 147.444, 87.768 147.444, 97.125 147.444, 98.162 147.444, 100.961 147.444, 103.961 147.444, 104.989 147.444, 110.502 147.444, 110.812 147.444, 110.875 147.444, 116.733 147.444, 116.733 147.444, 123.409 " fill="none" stroke="rgb(0, 0, 0)" stroke-linecap="butt" stroke-linejoin="round" stroke-opacity="1.0" stroke-width="3.0" />
            <path d=" M 143.933, 103.640 143.933, 106.749 143.933, 106.890 143.933, 106.890 143.933, 107.681 143.933, 107.785 143.933, 108.709 143.933, 110.118 143.933, 111.026 143.933, 111.026 143.933, 111.633 143.933, 111.633 143.933, 115.504 143.933, 115.504 143.933, 116.262 143.933, 116.262 143.933, 119.533 143.933, 119.533 147.058, 122.983 147.444, 123.409 157.336, 123.409 157.336, 123.409 157.336, 123.410 159.296, 124.703 159.874, 125.084 159.988, 125.084 169.959, 125.084 170.073, 125.084 173.738, 125.084 183.709, 125.084 184.293, 124.703 186.275, 123.410 186.275, 123.410 186.275, 123.409 195.716, 123.409 196.103, 123.409 196.103, 120.862 196.103, 120.862 196.103, 120.862 " fill="none" stroke="rgb(0, 0, 0)" stroke-linecap="butt" stroke-linejoin="round" stroke-opacity="1.0" stroke-width="3.0" />
            <path d=" M 186.275, 87.768 184.293, 85.297 183.709, 84.569 183.709, 84.569 183.709, 84.569 173.624, 84.569 163.624, 84.569 159.874, 84.569 159.296, 85.297 157.336, 87.768 156.949, 87.768 147.797, 87.768 147.797, 87.768 147.444, 87.768 147.444, 87.769 147.443, 87.770 147.058, 88.931 146.467, 90.709 146.412, 90.874 146.399, 90.913 146.361, 91.028 145.767, 92.819 145.767, 92.819 145.365, 94.028 145.151, 94.674 144.897, 95.439 144.164, 97.646 " fill="none" stroke="rgb(0, 0, 0)" stroke-linecap="butt" stroke-linejoin="round" stroke-opacity="1.0" stroke-width="3.0" />
            <path d=" M 147.444, 123.409 156.642, 123.409 156.642, 123.409 157.029, 123.409 157.336, 123.409 " fill="none" stroke="rgb(0, 0, 0)" stroke-linecap="butt" stroke-linejoin="round" stroke-opacity="1.0" stroke-width="3.0" />
            <path d=" M 196.103, 96.072 196.103, 94.177 196.103, 94.177 196.103, 93.717 196.103, 93.717 196.103, 87.768 186.518, 87.768 186.275, 87.768 185.889, 87.768 176.690, 87.768 " fill="none" stroke="rgb(0, 0, 0)" stroke-linecap="butt" stroke-linejoin="round" stroke-opacity="1.0" stroke-width="3.0" />
            <path d=" M 196.103, 113.422 196.103, 110.875 196.103, 108.075 196.103, 108.075 196.103, 102.571 196.103, 102.571 196.103, 102.571 " fill="none" stroke="rgb(0, 0, 0)" stroke-linecap="butt" stroke-linejoin="round" stroke-opacity="1.0" stroke-width="3.0" />
            <path d=" M 192.658, 102.571 192.658, 102.571 195.716, 102.571 196.103, 102.571 206.103, 102.571 216.103, 102.571 226.103, 102.571 229.619, 102.571 229.619, 102.571 236.249, 102.571 236.264, 102.571 236.264, 102.571 237.555, 102.571 237.555, 102.571 239.304, 102.571 239.691, 102.571 " fill="none" stroke="rgb(0, 0, 0)" stroke-linecap="butt" stroke-linejoin="round" stroke-opacity="1.0" stroke-width="3.0" />
            <path d=" M 192.658, 102.571 192.272, 102.571 189.962, 102.571 " fill="none" stroke="rgb(0, 0, 0)" stroke-linecap="butt" stroke-linejoin="round" stroke-opacity="1.0" stroke-width="3.0" />
            <path d=" M 186.518, 87.768 186.518, 87.768 186.518, 97.768 186.518, 107.768 186.518, 110.875 186.518, 119.942 186.518, 123.409 176.690, 123.409 176.689, 123.410 176.688, 123.410 173.624, 125.084 163.624, 125.084 159.988, 125.084 159.874, 125.084 " fill="none" stroke="rgb(0, 0, 0)" stroke-linecap="butt" stroke-linejoin="round" stroke-opacity="1.0" stroke-width="3.0" />
            <path d=" M 239.691, 102.571 239.304, 102.571 237.555, 102.571 237.555, 102.571 236.249, 102.571 226.249, 102.571 216.249, 102.571 206.249, 102.571 196.103, 102.571 195.716, 102.571 192.658, 102.571 192.272, 102.571 189.962, 102.571 189.962, 96.072 193.543, 96.072 193.543, 96.072 195.716, 96.072 196.103, 96.072 206.103, 96.072 210.470, 96.072 212.713, 96.072 212.713, 96.072 222.713, 96.072 232.666, 96.072 232.666, 96.072 232.687, 96.072 239.304, 96.072 239.691, 96.072 " fill="none" stroke="rgb(0, 0, 0)" stroke-linecap="butt" stroke-linejoin="round" stroke-opacity="1.0" stroke-width="3.0" />
            <path d=" M 204.718, 116.252 204.718, 113.422 197.777, 113.422 196.103, 113.422 195.716, 113.422 187.839, 113.422 " fill="none" stroke="rgb(0, 0, 0)" stroke-linecap="butt" stroke-linejoin="round" stroke-opacity="1.0" stroke-width="3.0" />
            <path d=" M 197.777, 120.862 196.103, 120.862 195.716, 120.862 194.781, 120.862 194.394, 120.862 187.839, 120.862 187.839, 119.974 187.839, 113.422 " fill="none" stroke="rgb(0, 0, 0)" stroke-linecap="butt" stroke-linejoin="round" stroke-opacity="1.0" stroke-width="3.0" />
            <path d=" M 194.781, 120.862 194.781, 120.862 195.716, 120.862 196.103, 120.862 197.391, 120.862 204.332, 120.862 204.718, 120.862 204.718, 119.986 204.718, 119.986 204.718, 118.033 204.718, 118.033 204.718, 118.033 " fill="none" stroke="rgb(0, 0, 0)" stroke-linecap="butt" stroke-linejoin="round" stroke-opacity="1.0" stroke-width="3.0" />
            <path d=" M 204.718, 120.862 204.332, 120.862 197.777, 120.862 197.777, 120.217 197.777, 113.422 197.777, 113.422 " fill="none" stroke="rgb(0, 0, 0)" stroke-linecap="butt" stroke-linejoin="round" stroke-opacity="1.0" stroke-width="3.0" />
            <path d=" M 239.691, 104.095 243.265, 104.095 243.651, 104.095 253.651, 104.095 253.824, 104.095 257.785, 104.095 258.171, 104.095 258.171, 94.548 254.211, 94.548 244.211, 94.548 239.691, 94.548 239.691, 94.549 239.691, 94.550 239.691, 96.072 239.691, 96.072 239.691, 96.072 239.691, 96.072 239.691, 96.939 239.691, 96.939 239.691, 96.939 239.691, 96.940 239.691, 101.703 239.691, 101.703 239.691, 101.703 239.691, 101.703 239.691, 102.571 239.691, 102.571 239.691, 102.571 239.691, 102.571 239.691, 104.095 " fill="none" stroke="rgb(0, 0, 0)" stroke-linecap="butt" stroke-linejoin="round" stroke-opacity="1.0" stroke-width="3.0" />
            <path d=" M 254.211, 104.095 257.785, 104.095 258.171, 104.095 " fill="none" stroke="rgb(0, 0, 0)" stroke-linecap="butt" stroke-linejoin="round" stroke-opacity="1.0" stroke-width="3.0" />
            <path d=" M 257.179, 101.703 256.793, 101.703 255.203, 101.703 255.203, 96.939 255.203, 96.939 255.203, 96.939 255.203, 96.939 " fill="none" stroke="rgb(0, 0, 0)" stroke-linecap="butt" stroke-linejoin="round" stroke-opacity="1.0" stroke-width="3.0" />
            <path d=" M 239.691, 104.095 249.691, 104.095 254.211, 104.095 254.211, 101.703 254.211, 101.703 254.211, 96.940 254.211, 96.939 254.211, 96.939 254.211, 94.548 254.211, 94.548 " fill="none" stroke="rgb(0, 0, 0)" stroke-linecap="butt" stroke-linejoin="round" stroke-opacity="1.0" stroke-width="3.0" />
            <path d=" M 203.251, 118.033 203.251, 118.033 204.332, 118.033 204.718, 118.033 208.666, 118.033 212.672, 118.033 213.058, 118.033 213.058, 116.252 209.052, 116.252 204.718, 116.252 204.332, 116.252 199.245, 116.252 " fill="none" stroke="rgb(0, 0, 0)" stroke-linecap="butt" stroke-linejoin="round" stroke-opacity="1.0" stroke-width="3.0" />
            <path d=" M 199.245, 118.033 199.245, 116.252 " fill="none" stroke="rgb(0, 0, 0)" stroke-linecap="butt" stroke-linejoin="round" stroke-opacity="1.0" stroke-width="3.0" />
            <path d=" M 203.251, 118.033 202.864, 118.033 199.245, 118.033 202.864, 118.033 203.251, 118.033 204.332, 118.033 204.718, 118.033 209.052, 118.033 " fill="none" stroke="rgb(0, 0, 0)" stroke-linecap="butt" stroke-linejoin="round" stroke-opacity="1.0" stroke-width="3.0" />
            <path d=" M 209.052, 116.252 209.052, 116.252 209.052, 118.033 212.672, 118.033 213.058, 118.033 " fill="none" stroke="rgb(0, 0, 0)" stroke-linecap="butt" stroke-linejoin="round" stroke-opacity="1.0" stroke-width="3.0" />
            <path d=" M 173.624, 84.569 173.624, 84.569 176.690, 87.768 " fill="none" stroke="rgb(0, 0, 0)" stroke-linecap="butt" stroke-linejoin="round" stroke-opacity="1.0" stroke-width="3.0" />
            <path d=" M 161.868, 88.384 171.630, 88.384 171.630, 88.384 171.630, 88.385 171.630, 88.386 171.630, 90.570 171.630, 90.570 171.630, 91.029 171.630, 91.029 171.630, 93.413 171.630, 93.413 171.630, 94.548 171.630, 94.548 171.630, 102.853 171.630, 102.853 171.630, 107.060 170.762, 107.060 163.173, 107.060 161.868, 107.060 " fill="none" stroke="rgb(0, 0, 0)" stroke-linecap="butt" stroke-linejoin="round" stroke-opacity="1.0" stroke-width="3.0" />
            <path d=" M 161.868, 107.060 161.868, 97.060 161.868, 88.384 163.173, 88.384 " fill="none" stroke="rgb(0, 0, 0)" stroke-linecap="butt" stroke-linejoin="round" stroke-opacity="1.0" stroke-width="3.0" />
            <path d=" M 171.630, 88.384 163.173, 88.384 163.173, 98.384 163.173, 107.060 " fill="none" stroke="rgb(0, 0, 0)" stroke-linecap="butt" stroke-linejoin="round" stroke-opacity="1.0" stroke-width="3.0" />
            <path d=" M 255.203, 96.939 257.179, 96.939 " fill="none" stroke="rgb(0, 0, 0)" stroke-linecap="butt" stroke-linejoin="round" stroke-opacity="1.0" stroke-width="3.0" />
            <path d=" M 255.203, 96.939 257.179, 96.939 257.179, 101.703 " fill="none" stroke="rgb(0, 0, 0)" stroke-linecap="butt" stroke-linejoin="round" stroke-opacity="1.0" stroke-width="3.0" />
            <path d=" M 156.642, 123.410 157.336, 123.410 " fill="none" stroke="rgb(0, 0, 0)" stroke-linecap="butt" stroke-linejoin="round" stroke-opacity="1.0" stroke-width="3.0" />
            <path d=" M 143.546, 116.204 143.546, 116.204 143.546, 119.533 147.058, 123.410 156.949, 123.410 159.296, 124.703 " fill="none" stroke="rgb(0, 0, 0)" stroke-linecap="butt" stroke-linejoin="round" stroke-opacity="1.0" stroke-width="3.0" />
            <path d=" M 156.642, 123.409 156.642, 123.410 156.642, 123.409 " fill="none" stroke="rgb(0, 0, 0)" stroke-linecap="butt" stroke-linejoin="round" stroke-opacity="1.0" stroke-width="3.0" />
            <path d=" M 186.275, 123.410 195.716, 123.410 195.716, 123.409 " fill="none" stroke="rgb(0, 0, 0)" stroke-linecap="butt" stroke-linejoin="round" stroke-opacity="1.0" stroke-width="3.0" />
            <path d=" M 196.103, 120.862 197.391, 120.862 204.332, 120.862 204.332, 120.862 " fill="none" stroke="rgb(0, 0, 0)" stroke-linecap="butt" stroke-linejoin="round" stroke-opacity="1.0" stroke-width="3.0" />
            <path d=" M 204.332, 120.862 196.103, 120.862 " fill="none" stroke="rgb(0, 0, 0)" stroke-linecap="butt" stroke-linejoin="round" stroke-opacity="1.0" stroke-width="3.0" />
            <path d=" M 239.304, 104.095 243.265, 104.095 " fill="none" stroke="rgb(0, 0, 0)" stroke-linecap="butt" stroke-linejoin="round" stroke-opacity="1.0" stroke-width="3.0" />
            <path d=" M 257.785, 104.095 247.785, 104.095 243.265, 104.095 243.265, 104.095 " fill="none" stroke="rgb(0, 0, 0)" stroke-linecap="butt" stroke-linejoin="round" stroke-opacity="1.0" stroke-width="3.0" />
            <path d=" M 239.691, 94.548 239.304, 94.548 239.304, 96.072 " fill="none" stroke="rgb(0, 0, 0)" stroke-linecap="butt" stroke-linejoin="round" stroke-opacity="1.0" stroke-width="3.0" />
            <path d=" M 239.304, 102.571 239.304, 104.095 249.304, 104.095 253.824, 104.095 257.785, 104.095 257.785, 104.095 " fill="none" stroke="rgb(0, 0, 0)" stroke-linecap="butt" stroke-linejoin="round" stroke-opacity="1.0" stroke-width="3.0" />
            <path d=" M 184.293, 124.703 183.823, 125.084 173.823, 125.084 170.073, 125.084 170.073, 125.084 " fill="none" stroke="rgb(0, 0, 0)" stroke-linecap="butt" stroke-linejoin="round" stroke-opacity="1.0" stroke-width="3.0" />
            <path d=" M 159.988, 125.084 159.988, 125.084 169.988, 125.084 173.738, 125.084 183.823, 125.084 " fill="none" stroke="rgb(0, 0, 0)" stroke-linecap="butt" stroke-linejoin="round" stroke-opacity="1.0" stroke-width="3.0" />
            <path d=" M 113.750, 45.517 113.750, 45.517 " fill="none" stroke="rgb(0, 0, 0)" stroke-linecap="butt" stroke-linejoin="round" stroke-opacity="1.0" stroke-width="3.0" />
            <path d=" M 117.283, 41.878 117.283, 41.878 " fill="none" stroke="rgb(0, 0, 0)" stroke-linecap="butt" stroke-linejoin="round" stroke-opacity="1.0" stroke-width="3.0" />
            <path d=" M 117.283, 41.878 117.283, 41.878 117.283, 41.878 " fill="none" stroke="rgb(0, 0, 0)" stroke-linecap="butt" stroke-linejoin="round" stroke-opacity="1.0" stroke-width="3.0" />
            <path d=" M 114.205, 142.767 121.069, 135.494 127.933, 128.222 128.883, 127.215 128.883, 127.215 " fill="none" stroke="rgb(0, 0, 0)" stroke-linecap="butt" stroke-linejoin="round" stroke-opacity="1.0" stroke-width="3.0" />
            <path d=" M 112.516, 144.556 114.156, 142.818 114.205, 142.767 121.069, 135.494 127.932, 128.222 128.883, 127.215 128.883, 127.215 " fill="none" stroke="rgb(0, 0, 0)" stroke-linecap="butt" stroke-linejoin="round" stroke-opacity="1.0" stroke-width="3.0" />
            <path d=" M 128.613, 95.668 128.640, 95.668 130.238, 95.668 " fill="none" stroke="rgb(0, 0, 0)" stroke-linecap="butt" stroke-linejoin="round" stroke-opacity="1.0" stroke-width="3.0" />
            <path d=" M 129.410, 99.578 129.423, 99.547 130.272, 97.578 " fill="none" stroke="rgb(0, 0, 0)" stroke-linecap="butt" stroke-linejoin="round" stroke-opacity="1.0" stroke-width="3.0" />
            <path d=" M 131.641, 128.528 131.641, 128.528 " fill="none" stroke="rgb(0, 0, 0)" stroke-linecap="butt" stroke-linejoin="round" stroke-opacity="1.0" stroke-width="3.0" />
            <path d=" M 130.234, 95.466 128.572, 95.466 " fill="none" stroke="rgb(0, 0, 0)" stroke-linecap="butt" stroke-linejoin="round" stroke-opacity="1.0" stroke-width="3.0" />
            <path d=" M 133.156, 107.335 133.156, 107.335 131.375, 109.222 131.375, 109.223 " fill="none" stroke="rgb(0, 0, 0)" stroke-linecap="butt" stroke-linejoin="round" stroke-opacity="1.0" stroke-width="3.0" />
            <path d=" M 138.995, 70.033 138.995, 70.033 " fill="none" stroke="rgb(0, 0, 0)" stroke-linecap="butt" stroke-linejoin="round" stroke-opacity="1.0" stroke-width="3.0" />
            <path d=" M 138.995, 70.033 138.995, 70.033 " fill="none" stroke="rgb(0, 0, 0)" stroke-linecap="butt" stroke-linejoin="round" stroke-opacity="1.0" stroke-width="3.0" />
            <path d=" M 141.473, 69.059 143.317, 67.160 143.317, 67.160 143.317, 67.160 " fill="none" stroke="rgb(0, 0, 0)" stroke-linecap="butt" stroke-linejoin="round" stroke-opacity="1.0" stroke-width="3.0" />
            <path d=" M 141.473, 69.059 143.317, 67.160 143.317, 67.160 143.317, 67.160 143.317, 67.160 143.317, 67.160 " fill="none" stroke="rgb(0, 0, 0)" stroke-linecap="butt" stroke-linejoin="round" stroke-opacity="1.0" stroke-width="3.0" />
            <path d=" M 141.473, 69.059 143.317, 67.160 143.317, 67.160 " fill="none" stroke="rgb(0, 0, 0)" stroke-linecap="butt" stroke-linejoin="round" stroke-opacity="1.0" stroke-width="3.0" />
            <path d=" M 143.306, 116.168 143.546, 116.204 " fill="none" stroke="rgb(0, 0, 0)" stroke-linecap="butt" stroke-linejoin="round" stroke-opacity="1.0" stroke-width="3.0" />
            <path d=" M 147.976, 60.785 147.976, 60.785 147.976, 60.785 " fill="none" stroke="rgb(0, 0, 0)" stroke-linecap="butt" stroke-linejoin="round" stroke-opacity="1.0" stroke-width="3.0" />
            <path d=" M 142.529, 66.394 147.976, 60.785 " fill="none" stroke="rgb(0, 0, 0)" stroke-linecap="butt" stroke-linejoin="round" stroke-opacity="1.0" stroke-width="3.0" />
            <path d=" M 147.976, 60.785 142.529, 66.394 " fill="none" stroke="rgb(0, 0, 0)" stroke-linecap="butt" stroke-linejoin="round" stroke-opacity="1.0" stroke-width="3.0" />
            <path d=" M 147.976, 60.785 147.976, 60.785 147.976, 60.785 147.976, 60.785 " fill="none" stroke="rgb(0, 0, 0)" stroke-linecap="butt" stroke-linejoin="round" stroke-opacity="1.0" stroke-width="3.0" />
            <path d=" M 142.529, 66.394 147.976, 60.785 " fill="none" stroke="rgb(0, 0, 0)" stroke-linecap="butt" stroke-linejoin="round" stroke-opacity="1.0" stroke-width="3.0" />
            <path d=" M 147.976, 60.785 147.976, 60.785 142.529, 66.394 " fill="none" stroke="rgb(0, 0, 0)" stroke-linecap="butt" stroke-linejoin="round" stroke-opacity="1.0" stroke-width="3.0" />
            <path d=" M 143.933, 119.533 143.546, 119.533 " fill="none" stroke="rgb(0, 0, 0)" stroke-linecap="butt" stroke-linejoin="round" stroke-opacity="1.0" stroke-width="3.0" />
            <path d=" M 157.078, 189.308 157.078, 189.308 " fill="none" stroke="rgb(0, 0, 0)" stroke-linecap="butt" stroke-linejoin="round" stroke-opacity="1.0" stroke-width="3.0" />
            <path d=" M 168.898, 189.308 168.898, 189.308 " fill="none" stroke="rgb(0, 0, 0)" stroke-linecap="butt" stroke-linejoin="round" stroke-opacity="1.0" stroke-width="3.0" />
            <path d=" M 169.106, 189.308 169.106, 189.308 " fill="none" stroke="rgb(0, 0, 0)" stroke-linecap="butt" stroke-linejoin="round" stroke-opacity="1.0" stroke-width="3.0" />
            <path d=" M 168.898, 189.308 166.691, 189.308 166.381, 189.308 " fill="none" stroke="rgb(0, 0, 0)" stroke-linecap="butt" stroke-linejoin="round" stroke-opacity="1.0" stroke-width="3.0" />
            <path d=" M 173.973, 189.308 173.973, 189.308 " fill="none" stroke="rgb(0, 0, 0)" stroke-linecap="butt" stroke-linejoin="round" stroke-opacity="1.0" stroke-width="3.0" />
            <path d=" M 172.047, 189.308 179.430, 189.308 179.638, 189.308 " fill="none" stroke="rgb(0, 0, 0)" stroke-linecap="butt" stroke-linejoin="round" stroke-opacity="1.0" stroke-width="3.0" />
            <path d=" M 186.275, 123.410 195.716, 123.410 " fill="none" stroke="rgb(0, 0, 0)" stroke-linecap="butt" stroke-linejoin="round" stroke-opacity="1.0" stroke-width="3.0" />
            <path d=" M 225.036, 87.415 231.648, 94.917 232.666, 96.072 " fill="none" stroke="rgb(0, 0, 0)" stroke-linecap="butt" stroke-linejoin="round" stroke-opacity="1.0" stroke-width="3.0" />
            <path d=" M 236.264, 102.571 236.264, 102.571 237.768, 102.842 237.768, 102.842 " fill="none" stroke="rgb(0, 0, 0)" stroke-linecap="butt" stroke-linejoin="round" stroke-opacity="1.0" stroke-width="3.0" />
            <path d=" M 237.555, 102.571 239.304, 102.571 239.691, 102.571 " fill="none" stroke="rgb(0, 0, 0)" stroke-linecap="butt" stroke-linejoin="round" stroke-opacity="1.0" stroke-width="3.0" />
            <path d=" M 239.691, 102.571 239.304, 102.571 237.555, 102.571 " fill="none" stroke="rgb(0, 0, 0)" stroke-linecap="butt" stroke-linejoin="round" stroke-opacity="1.0" stroke-width="3.0" />
        </g>
    </g>
</svg>
